<mxfile host="app.diagrams.net" modified="2023-07-10T16:42:49.899Z" agent="Mozilla/5.0 (Windows NT 10.0; Win64; x64) AppleWebKit/537.36 (KHTML, like Gecko) Chrome/114.0.0.0 Safari/537.36" etag="RzlfMqGoGb-RirF8FQmI" version="21.6.1" type="device">
  <diagram name="PÃ¡gina-1" id="pndVXGRCgD_JKjQ42tjx">
    <mxGraphModel dx="1293" dy="224" grid="1" gridSize="10" guides="1" tooltips="1" connect="1" arrows="1" fold="1" page="1" pageScale="1" pageWidth="827" pageHeight="1169" math="1" shadow="0">
      <root>
        <mxCell id="0" />
        <mxCell id="1" parent="0" />
        <mxCell id="CV-hQq9GROn-2rYZleFv-1" value="primitiveStore" style="swimlane;fontStyle=1;align=center;verticalAlign=top;childLayout=stackLayout;horizontal=1;startSize=26;horizontalStack=0;resizeParent=1;resizeParentMax=0;resizeLast=0;collapsible=1;marginBottom=0;whiteSpace=wrap;html=1;fontSize=16;" parent="1" vertex="1">
          <mxGeometry x="-390" y="190" width="200" height="138" as="geometry" />
        </mxCell>
        <mxCell id="CV-hQq9GROn-2rYZleFv-3" value="" style="line;strokeWidth=1;fillColor=none;align=left;verticalAlign=middle;spacingTop=-1;spacingLeft=3;spacingRight=3;rotatable=0;labelPosition=right;points=[];portConstraint=eastwest;strokeColor=inherit;fontSize=16;" parent="CV-hQq9GROn-2rYZleFv-1" vertex="1">
          <mxGeometry y="26" width="200" height="8" as="geometry" />
        </mxCell>
        <mxCell id="CV-hQq9GROn-2rYZleFv-4" value="+ updatePrimitive(id, data): void&lt;br style=&quot;font-size: 16px;&quot;&gt;" style="text;strokeColor=none;fillColor=none;align=left;verticalAlign=top;spacingLeft=4;spacingRight=4;overflow=hidden;rotatable=0;points=[[0,0.5],[1,0.5]];portConstraint=eastwest;whiteSpace=wrap;html=1;fontSize=16;" parent="CV-hQq9GROn-2rYZleFv-1" vertex="1">
          <mxGeometry y="34" width="200" height="26" as="geometry" />
        </mxCell>
        <mxCell id="CV-hQq9GROn-2rYZleFv-13" value="+ deletePrimitive(id): void" style="text;strokeColor=none;fillColor=none;align=left;verticalAlign=top;spacingLeft=4;spacingRight=4;overflow=hidden;rotatable=0;points=[[0,0.5],[1,0.5]];portConstraint=eastwest;whiteSpace=wrap;html=1;fontSize=16;" parent="CV-hQq9GROn-2rYZleFv-1" vertex="1">
          <mxGeometry y="60" width="200" height="26" as="geometry" />
        </mxCell>
        <mxCell id="CV-hQq9GROn-2rYZleFv-14" value="+ addPrimitive(Primitive): void" style="text;strokeColor=none;fillColor=none;align=left;verticalAlign=top;spacingLeft=4;spacingRight=4;overflow=hidden;rotatable=0;points=[[0,0.5],[1,0.5]];portConstraint=eastwest;whiteSpace=wrap;html=1;fontSize=16;" parent="CV-hQq9GROn-2rYZleFv-1" vertex="1">
          <mxGeometry y="86" width="200" height="26" as="geometry" />
        </mxCell>
        <mxCell id="CV-hQq9GROn-2rYZleFv-15" value="+ restorePrimitives(): void" style="text;strokeColor=none;fillColor=none;align=left;verticalAlign=top;spacingLeft=4;spacingRight=4;overflow=hidden;rotatable=0;points=[[0,0.5],[1,0.5]];portConstraint=eastwest;whiteSpace=wrap;html=1;fontSize=16;" parent="CV-hQq9GROn-2rYZleFv-1" vertex="1">
          <mxGeometry y="112" width="200" height="26" as="geometry" />
        </mxCell>
        <mxCell id="CV-hQq9GROn-2rYZleFv-16" value="&lt;b style=&quot;font-size: 16px;&quot;&gt;Primitive&lt;/b&gt;" style="swimlane;fontStyle=0;childLayout=stackLayout;horizontal=1;startSize=26;fillColor=none;horizontalStack=0;resizeParent=1;resizeParentMax=0;resizeLast=0;collapsible=1;marginBottom=0;whiteSpace=wrap;html=1;fontSize=16;" parent="1" vertex="1">
          <mxGeometry x="-90" y="190" width="230" height="156" as="geometry" />
        </mxCell>
        <mxCell id="CV-hQq9GROn-2rYZleFv-17" value="+ id: string" style="text;strokeColor=none;fillColor=none;align=left;verticalAlign=top;spacingLeft=4;spacingRight=4;overflow=hidden;rotatable=0;points=[[0,0.5],[1,0.5]];portConstraint=eastwest;whiteSpace=wrap;html=1;fontSize=16;" parent="CV-hQq9GROn-2rYZleFv-16" vertex="1">
          <mxGeometry y="26" width="230" height="26" as="geometry" />
        </mxCell>
        <mxCell id="CV-hQq9GROn-2rYZleFv-18" value="+ name: string" style="text;strokeColor=none;fillColor=none;align=left;verticalAlign=top;spacingLeft=4;spacingRight=4;overflow=hidden;rotatable=0;points=[[0,0.5],[1,0.5]];portConstraint=eastwest;whiteSpace=wrap;html=1;fontSize=16;" parent="CV-hQq9GROn-2rYZleFv-16" vertex="1">
          <mxGeometry y="52" width="230" height="26" as="geometry" />
        </mxCell>
        <mxCell id="CV-hQq9GROn-2rYZleFv-20" value="+ input: string[3]" style="text;strokeColor=none;fillColor=none;align=left;verticalAlign=top;spacingLeft=4;spacingRight=4;overflow=hidden;rotatable=0;points=[[0,0.5],[1,0.5]];portConstraint=eastwest;whiteSpace=wrap;html=1;fontSize=16;" parent="CV-hQq9GROn-2rYZleFv-16" vertex="1">
          <mxGeometry y="78" width="230" height="26" as="geometry" />
        </mxCell>
        <mxCell id="CV-hQq9GROn-2rYZleFv-21" value="+ parsedInput: string" style="text;strokeColor=none;fillColor=none;align=left;verticalAlign=top;spacingLeft=4;spacingRight=4;overflow=hidden;rotatable=0;points=[[0,0.5],[1,0.5]];portConstraint=eastwest;whiteSpace=wrap;html=1;fontSize=16;" parent="CV-hQq9GROn-2rYZleFv-16" vertex="1">
          <mxGeometry y="104" width="230" height="26" as="geometry" />
        </mxCell>
        <mxCell id="CV-hQq9GROn-2rYZleFv-23" value="+ fHeader: string" style="text;strokeColor=none;fillColor=none;align=left;verticalAlign=top;spacingLeft=4;spacingRight=4;overflow=hidden;rotatable=0;points=[[0,0.5],[1,0.5]];portConstraint=eastwest;whiteSpace=wrap;html=1;fontSize=16;" parent="CV-hQq9GROn-2rYZleFv-16" vertex="1">
          <mxGeometry y="130" width="230" height="26" as="geometry" />
        </mxCell>
        <mxCell id="CV-hQq9GROn-2rYZleFv-25" value="&lt;b style=&quot;font-size: 16px;&quot;&gt;Parameter&lt;/b&gt;" style="swimlane;fontStyle=0;childLayout=stackLayout;horizontal=1;startSize=26;fillColor=none;horizontalStack=0;resizeParent=1;resizeParentMax=0;resizeLast=0;collapsible=1;marginBottom=0;whiteSpace=wrap;html=1;fontSize=16;" parent="1" vertex="1">
          <mxGeometry x="290" y="60" width="200" height="130" as="geometry" />
        </mxCell>
        <mxCell id="CV-hQq9GROn-2rYZleFv-26" value="+ symbol: string" style="text;strokeColor=none;fillColor=none;align=left;verticalAlign=top;spacingLeft=4;spacingRight=4;overflow=hidden;rotatable=0;points=[[0,0.5],[1,0.5]];portConstraint=eastwest;whiteSpace=wrap;html=1;fontSize=16;" parent="CV-hQq9GROn-2rYZleFv-25" vertex="1">
          <mxGeometry y="26" width="200" height="26" as="geometry" />
        </mxCell>
        <mxCell id="CV-hQq9GROn-2rYZleFv-27" value="+ label: string" style="text;strokeColor=none;fillColor=none;align=left;verticalAlign=top;spacingLeft=4;spacingRight=4;overflow=hidden;rotatable=0;points=[[0,0.5],[1,0.5]];portConstraint=eastwest;whiteSpace=wrap;html=1;fontSize=16;" parent="CV-hQq9GROn-2rYZleFv-25" vertex="1">
          <mxGeometry y="52" width="200" height="26" as="geometry" />
        </mxCell>
        <mxCell id="CV-hQq9GROn-2rYZleFv-28" value="+ defaultVal: Number" style="text;strokeColor=none;fillColor=none;align=left;verticalAlign=top;spacingLeft=4;spacingRight=4;overflow=hidden;rotatable=0;points=[[0,0.5],[1,0.5]];portConstraint=eastwest;whiteSpace=wrap;html=1;fontSize=16;" parent="CV-hQq9GROn-2rYZleFv-25" vertex="1">
          <mxGeometry y="78" width="200" height="26" as="geometry" />
        </mxCell>
        <mxCell id="CV-hQq9GROn-2rYZleFv-30" value="+ range: Number[2]" style="text;strokeColor=none;fillColor=none;align=left;verticalAlign=top;spacingLeft=4;spacingRight=4;overflow=hidden;rotatable=0;points=[[0,0.5],[1,0.5]];portConstraint=eastwest;whiteSpace=wrap;html=1;fontSize=16;" parent="CV-hQq9GROn-2rYZleFv-25" vertex="1">
          <mxGeometry y="104" width="200" height="26" as="geometry" />
        </mxCell>
        <mxCell id="CV-hQq9GROn-2rYZleFv-39" style="rounded=0;orthogonalLoop=1;jettySize=auto;html=1;exitX=1.011;exitY=0.15;exitDx=0;exitDy=0;fontSize=16;exitPerimeter=0;" parent="1" source="CV-hQq9GROn-2rYZleFv-13" edge="1">
          <mxGeometry relative="1" as="geometry">
            <mxPoint x="510" y="271" as="sourcePoint" />
            <mxPoint x="-90" y="253" as="targetPoint" />
          </mxGeometry>
        </mxCell>
        <mxCell id="CV-hQq9GROn-2rYZleFv-42" value="0..*" style="edgeLabel;html=1;align=center;verticalAlign=middle;resizable=0;points=[];fontSize=16;" parent="CV-hQq9GROn-2rYZleFv-39" vertex="1" connectable="0">
          <mxGeometry x="0.6126" y="2" relative="1" as="geometry">
            <mxPoint x="5" y="21" as="offset" />
          </mxGeometry>
        </mxCell>
        <mxCell id="CV-hQq9GROn-2rYZleFv-61" value="primitives" style="edgeLabel;html=1;align=center;verticalAlign=middle;resizable=0;points=[];fontSize=16;" parent="CV-hQq9GROn-2rYZleFv-39" vertex="1" connectable="0">
          <mxGeometry x="0.206" y="-3" relative="1" as="geometry">
            <mxPoint y="-24" as="offset" />
          </mxGeometry>
        </mxCell>
        <mxCell id="CV-hQq9GROn-2rYZleFv-43" value="&lt;b style=&quot;font-size: 16px;&quot;&gt;Material&lt;/b&gt;" style="swimlane;fontStyle=0;childLayout=stackLayout;horizontal=1;startSize=26;fillColor=none;horizontalStack=0;resizeParent=1;resizeParentMax=0;resizeLast=0;collapsible=1;marginBottom=0;whiteSpace=wrap;html=1;fontSize=16;" parent="1" vertex="1">
          <mxGeometry x="300" y="216" width="180" height="130" as="geometry" />
        </mxCell>
        <mxCell id="CV-hQq9GROn-2rYZleFv-44" value="+ specular: Number[]" style="text;strokeColor=none;fillColor=none;align=left;verticalAlign=top;spacingLeft=4;spacingRight=4;overflow=hidden;rotatable=0;points=[[0,0.5],[1,0.5]];portConstraint=eastwest;whiteSpace=wrap;html=1;fontSize=16;" parent="CV-hQq9GROn-2rYZleFv-43" vertex="1">
          <mxGeometry y="26" width="180" height="26" as="geometry" />
        </mxCell>
        <mxCell id="CV-hQq9GROn-2rYZleFv-45" value="+ diffuse: Number[]" style="text;strokeColor=none;fillColor=none;align=left;verticalAlign=top;spacingLeft=4;spacingRight=4;overflow=hidden;rotatable=0;points=[[0,0.5],[1,0.5]];portConstraint=eastwest;whiteSpace=wrap;html=1;fontSize=16;" parent="CV-hQq9GROn-2rYZleFv-43" vertex="1">
          <mxGeometry y="52" width="180" height="26" as="geometry" />
        </mxCell>
        <mxCell id="CV-hQq9GROn-2rYZleFv-46" value="+ ambient: Number[]" style="text;strokeColor=none;fillColor=none;align=left;verticalAlign=top;spacingLeft=4;spacingRight=4;overflow=hidden;rotatable=0;points=[[0,0.5],[1,0.5]];portConstraint=eastwest;whiteSpace=wrap;html=1;fontSize=16;" parent="CV-hQq9GROn-2rYZleFv-43" vertex="1">
          <mxGeometry y="78" width="180" height="26" as="geometry" />
        </mxCell>
        <mxCell id="CV-hQq9GROn-2rYZleFv-47" value="+ smoothness: Number" style="text;strokeColor=none;fillColor=none;align=left;verticalAlign=top;spacingLeft=4;spacingRight=4;overflow=hidden;rotatable=0;points=[[0,0.5],[1,0.5]];portConstraint=eastwest;whiteSpace=wrap;html=1;fontSize=16;" parent="CV-hQq9GROn-2rYZleFv-43" vertex="1">
          <mxGeometry y="104" width="180" height="26" as="geometry" />
        </mxCell>
        <mxCell id="CV-hQq9GROn-2rYZleFv-52" value="&lt;p style=&quot;margin: 4px 0px 0px; text-align: center; font-size: 16px;&quot;&gt;&lt;i style=&quot;font-size: 16px;&quot;&gt;&amp;lt;&amp;lt;enum&amp;gt;&amp;gt;&lt;/i&gt;&lt;br style=&quot;font-size: 16px;&quot;&gt;&lt;b style=&quot;font-size: 16px;&quot;&gt;InputMode&lt;/b&gt;&lt;/p&gt;&lt;hr style=&quot;font-size: 16px;&quot;&gt;&lt;p style=&quot;margin: 0px 0px 0px 4px; font-size: 16px;&quot;&gt;SDF&lt;/p&gt;&lt;p style=&quot;margin: 0px 0px 0px 4px; font-size: 16px;&quot;&gt;Implicit&lt;/p&gt;&lt;p style=&quot;margin: 0px 0px 0px 4px; font-size: 16px;&quot;&gt;Parametric&lt;/p&gt;&lt;p style=&quot;margin: 0px 0px 0px 4px; font-size: 16px;&quot;&gt;&lt;br style=&quot;font-size: 16px;&quot;&gt;&lt;/p&gt;" style="verticalAlign=top;align=left;overflow=fill;fontSize=16;fontFamily=Helvetica;html=1;whiteSpace=wrap;" parent="1" vertex="1">
          <mxGeometry x="340" y="400" width="100" height="100" as="geometry" />
        </mxCell>
        <mxCell id="CV-hQq9GROn-2rYZleFv-53" value="&lt;p style=&quot;margin: 4px 0px 0px; text-align: center; font-size: 16px;&quot;&gt;&lt;i style=&quot;font-size: 16px;&quot;&gt;&amp;lt;&amp;lt;enum&amp;gt;&amp;gt;&lt;/i&gt;&lt;br style=&quot;font-size: 16px;&quot;&gt;&lt;b style=&quot;font-size: 16px;&quot;&gt;InputType&lt;/b&gt;&lt;/p&gt;&lt;hr style=&quot;font-size: 16px;&quot;&gt;&lt;p style=&quot;margin: 0px 0px 0px 4px; font-size: 16px;&quot;&gt;Range&lt;/p&gt;&lt;p style=&quot;margin: 0px 0px 0px 4px; font-size: 16px;&quot;&gt;Value&lt;/p&gt;&lt;p style=&quot;margin: 0px 0px 0px 4px; font-size: 16px;&quot;&gt;&lt;br style=&quot;font-size: 16px;&quot;&gt;&lt;/p&gt;&lt;p style=&quot;margin: 0px 0px 0px 4px; font-size: 16px;&quot;&gt;&lt;br style=&quot;font-size: 16px;&quot;&gt;&lt;/p&gt;" style="verticalAlign=top;align=left;overflow=fill;fontSize=16;fontFamily=Helvetica;html=1;whiteSpace=wrap;" parent="1" vertex="1">
          <mxGeometry x="570" y="75" width="100" height="100" as="geometry" />
        </mxCell>
        <mxCell id="CV-hQq9GROn-2rYZleFv-62" value="&lt;b style=&quot;font-size: 16px;&quot;&gt;localStorage&lt;/b&gt;" style="shape=datastore;whiteSpace=wrap;html=1;fontSize=16;" parent="1" vertex="1">
          <mxGeometry x="-350" y="390" width="120" height="85" as="geometry" />
        </mxCell>
        <mxCell id="CV-hQq9GROn-2rYZleFv-63" style="rounded=0;orthogonalLoop=1;jettySize=auto;html=1;fontSize=16;edgeStyle=elbowEdgeStyle;exitX=0.5;exitY=0;exitDx=0;exitDy=0;" parent="1" source="CV-hQq9GROn-2rYZleFv-62" edge="1">
          <mxGeometry relative="1" as="geometry">
            <mxPoint x="-290" y="330" as="targetPoint" />
          </mxGeometry>
        </mxCell>
        <mxCell id="CV-hQq9GROn-2rYZleFv-64" value="userPrimitives" style="edgeLabel;html=1;align=center;verticalAlign=middle;resizable=0;points=[];fontSize=16;" parent="CV-hQq9GROn-2rYZleFv-63" vertex="1" connectable="0">
          <mxGeometry x="0.36" relative="1" as="geometry">
            <mxPoint x="-60" y="4" as="offset" />
          </mxGeometry>
        </mxCell>
        <mxCell id="CV-hQq9GROn-2rYZleFv-56" style="edgeStyle=orthogonalEdgeStyle;rounded=0;orthogonalLoop=1;jettySize=auto;html=1;fontSize=16;exitX=1;exitY=0.5;exitDx=0;exitDy=0;" parent="1" source="CV-hQq9GROn-2rYZleFv-27" target="CV-hQq9GROn-2rYZleFv-53" edge="1">
          <mxGeometry relative="1" as="geometry" />
        </mxCell>
        <mxCell id="CV-hQq9GROn-2rYZleFv-57" value="type" style="edgeLabel;html=1;align=center;verticalAlign=middle;resizable=0;points=[];fontSize=16;" parent="CV-hQq9GROn-2rYZleFv-56" vertex="1" connectable="0">
          <mxGeometry x="0.3076" relative="1" as="geometry">
            <mxPoint x="-2" y="-13" as="offset" />
          </mxGeometry>
        </mxCell>
        <mxCell id="CV-hQq9GROn-2rYZleFv-40" style="edgeStyle=orthogonalEdgeStyle;rounded=0;orthogonalLoop=1;jettySize=auto;html=1;fontSize=16;exitX=1;exitY=0.5;exitDx=0;exitDy=0;entryX=0;entryY=0.5;entryDx=0;entryDy=0;" parent="1" source="CV-hQq9GROn-2rYZleFv-17" target="CV-hQq9GROn-2rYZleFv-27" edge="1">
          <mxGeometry relative="1" as="geometry">
            <Array as="points">
              <mxPoint x="200" y="229" />
              <mxPoint x="200" y="125" />
            </Array>
          </mxGeometry>
        </mxCell>
        <mxCell id="CV-hQq9GROn-2rYZleFv-41" value="0..*" style="edgeLabel;html=1;align=center;verticalAlign=middle;resizable=0;points=[];fontSize=16;" parent="CV-hQq9GROn-2rYZleFv-40" vertex="1" connectable="0">
          <mxGeometry x="0.66" y="-2" relative="1" as="geometry">
            <mxPoint x="11" y="13" as="offset" />
          </mxGeometry>
        </mxCell>
        <mxCell id="CV-hQq9GROn-2rYZleFv-55" value="parameters" style="edgeLabel;html=1;align=center;verticalAlign=middle;resizable=0;points=[];fontSize=16;" parent="CV-hQq9GROn-2rYZleFv-40" vertex="1" connectable="0">
          <mxGeometry x="0.3733" y="2" relative="1" as="geometry">
            <mxPoint x="20" y="-13" as="offset" />
          </mxGeometry>
        </mxCell>
        <mxCell id="CV-hQq9GROn-2rYZleFv-48" style="rounded=0;orthogonalLoop=1;jettySize=auto;html=1;fontSize=16;exitX=1;exitY=0.5;exitDx=0;exitDy=0;" parent="1" source="CV-hQq9GROn-2rYZleFv-20" target="CV-hQq9GROn-2rYZleFv-45" edge="1">
          <mxGeometry relative="1" as="geometry" />
        </mxCell>
        <mxCell id="CV-hQq9GROn-2rYZleFv-54" value="material" style="edgeLabel;html=1;align=center;verticalAlign=middle;resizable=0;points=[];fontSize=16;" parent="CV-hQq9GROn-2rYZleFv-48" vertex="1" connectable="0">
          <mxGeometry x="0.6212" y="-2" relative="1" as="geometry">
            <mxPoint x="-15" y="-17" as="offset" />
          </mxGeometry>
        </mxCell>
        <mxCell id="CV-hQq9GROn-2rYZleFv-59" style="edgeStyle=orthogonalEdgeStyle;rounded=0;orthogonalLoop=1;jettySize=auto;html=1;entryX=0;entryY=0.5;entryDx=0;entryDy=0;exitX=1;exitY=0.5;exitDx=0;exitDy=0;fontSize=16;" parent="1" source="CV-hQq9GROn-2rYZleFv-23" target="CV-hQq9GROn-2rYZleFv-52" edge="1">
          <mxGeometry relative="1" as="geometry">
            <mxPoint x="240" y="349" as="sourcePoint" />
            <Array as="points">
              <mxPoint x="200" y="333" />
              <mxPoint x="200" y="450" />
            </Array>
          </mxGeometry>
        </mxCell>
        <mxCell id="CV-hQq9GROn-2rYZleFv-60" value="inputMode" style="edgeLabel;html=1;align=center;verticalAlign=middle;resizable=0;points=[];fontSize=16;" parent="CV-hQq9GROn-2rYZleFv-59" vertex="1" connectable="0">
          <mxGeometry x="0.5754" y="2" relative="1" as="geometry">
            <mxPoint x="11" y="-15" as="offset" />
          </mxGeometry>
        </mxCell>
        <mxCell id="CV-hQq9GROn-2rYZleFv-87" value="Polynomial" style="swimlane;fontStyle=1;align=center;verticalAlign=top;childLayout=stackLayout;horizontal=1;startSize=26;horizontalStack=0;resizeParent=1;resizeParentMax=0;resizeLast=0;collapsible=1;marginBottom=0;whiteSpace=wrap;html=1;fontSize=16;" parent="1" vertex="1">
          <mxGeometry x="-210" y="670" width="810" height="1282" as="geometry" />
        </mxCell>
        <mxCell id="CV-hQq9GROn-2rYZleFv-90" value="- vars: string[]" style="text;strokeColor=none;fillColor=none;align=left;verticalAlign=top;spacingLeft=4;spacingRight=4;overflow=hidden;rotatable=0;points=[[0,0.5],[1,0.5]];portConstraint=eastwest;whiteSpace=wrap;html=1;fontSize=16;" parent="CV-hQq9GROn-2rYZleFv-87" vertex="1">
          <mxGeometry y="26" width="810" height="26" as="geometry" />
        </mxCell>
        <mxCell id="CV-hQq9GROn-2rYZleFv-91" value="" style="line;strokeWidth=1;fillColor=none;align=left;verticalAlign=middle;spacingTop=-1;spacingLeft=3;spacingRight=3;rotatable=0;labelPosition=right;points=[];portConstraint=eastwest;strokeColor=inherit;fontSize=16;" parent="CV-hQq9GROn-2rYZleFv-87" vertex="1">
          <mxGeometry y="52" width="810" height="8" as="geometry" />
        </mxCell>
        <mxCell id="CV-hQq9GROn-2rYZleFv-115" value="- applyLex()" style="text;strokeColor=none;fillColor=none;align=left;verticalAlign=top;spacingLeft=4;spacingRight=4;overflow=hidden;rotatable=0;points=[[0,0.5],[1,0.5]];portConstraint=eastwest;whiteSpace=wrap;html=1;fontSize=16;" parent="CV-hQq9GROn-2rYZleFv-87" vertex="1">
          <mxGeometry y="60" width="810" height="26" as="geometry" />
        </mxCell>
        <mxCell id="CV-hQq9GROn-2rYZleFv-116" value="+ clone() : Polynomial&amp;nbsp;" style="text;strokeColor=none;fillColor=none;align=left;verticalAlign=top;spacingLeft=4;spacingRight=4;overflow=hidden;rotatable=0;points=[[0,0.5],[1,0.5]];portConstraint=eastwest;whiteSpace=wrap;html=1;fontSize=16;" parent="CV-hQq9GROn-2rYZleFv-87" vertex="1">
          <mxGeometry y="86" width="810" height="26" as="geometry" />
        </mxCell>
        <mxCell id="CV-hQq9GROn-2rYZleFv-117" value="- computeCoefficients(string)" style="text;strokeColor=none;fillColor=none;align=left;verticalAlign=top;spacingLeft=4;spacingRight=4;overflow=hidden;rotatable=0;points=[[0,0.5],[1,0.5]];portConstraint=eastwest;whiteSpace=wrap;html=1;fontSize=16;" parent="CV-hQq9GROn-2rYZleFv-87" vertex="1">
          <mxGeometry y="112" width="810" height="26" as="geometry" />
        </mxCell>
        <mxCell id="CV-hQq9GROn-2rYZleFv-118" value="+ divide(Polynomial[], maxIter?, verbose?) : {Polynomial[], Polynomial, [string]: any}" style="text;strokeColor=none;fillColor=none;align=left;verticalAlign=top;spacingLeft=4;spacingRight=4;overflow=hidden;rotatable=0;points=[[0,0.5],[1,0.5]];portConstraint=eastwest;whiteSpace=wrap;html=1;fontSize=16;" parent="CV-hQq9GROn-2rYZleFv-87" vertex="1">
          <mxGeometry y="138" width="810" height="26" as="geometry" />
        </mxCell>
        <mxCell id="CV-hQq9GROn-2rYZleFv-119" value="+ equals(Polynomial) : boolean" style="text;strokeColor=none;fillColor=none;align=left;verticalAlign=top;spacingLeft=4;spacingRight=4;overflow=hidden;rotatable=0;points=[[0,0.5],[1,0.5]];portConstraint=eastwest;whiteSpace=wrap;html=1;fontSize=16;" parent="CV-hQq9GROn-2rYZleFv-87" vertex="1">
          <mxGeometry y="164" width="810" height="26" as="geometry" />
        </mxCell>
        <mxCell id="CV-hQq9GROn-2rYZleFv-127" value="+ exp() : Float64Array" style="text;strokeColor=none;fillColor=none;align=left;verticalAlign=top;spacingLeft=4;spacingRight=4;overflow=hidden;rotatable=0;points=[[0,0.5],[1,0.5]];portConstraint=eastwest;whiteSpace=wrap;html=1;fontSize=16;" parent="CV-hQq9GROn-2rYZleFv-87" vertex="1">
          <mxGeometry y="190" width="810" height="26" as="geometry" />
        </mxCell>
        <mxCell id="CV-hQq9GROn-2rYZleFv-128" value="+ gcd(Polynomial) : Monomial" style="text;strokeColor=none;fillColor=none;align=left;verticalAlign=top;spacingLeft=4;spacingRight=4;overflow=hidden;rotatable=0;points=[[0,0.5],[1,0.5]];portConstraint=eastwest;whiteSpace=wrap;html=1;fontSize=16;" parent="CV-hQq9GROn-2rYZleFv-87" vertex="1">
          <mxGeometry y="216" width="810" height="26" as="geometry" />
        </mxCell>
        <mxCell id="CV-hQq9GROn-2rYZleFv-129" value="+ getMonomials() : Monomial[]" style="text;strokeColor=none;fillColor=none;align=left;verticalAlign=top;spacingLeft=4;spacingRight=4;overflow=hidden;rotatable=0;points=[[0,0.5],[1,0.5]];portConstraint=eastwest;whiteSpace=wrap;html=1;fontSize=16;" parent="CV-hQq9GROn-2rYZleFv-87" vertex="1">
          <mxGeometry y="242" width="810" height="26" as="geometry" />
        </mxCell>
        <mxCell id="CV-hQq9GROn-2rYZleFv-130" value="+ getVars() : string[]" style="text;strokeColor=none;fillColor=none;align=left;verticalAlign=top;spacingLeft=4;spacingRight=4;overflow=hidden;rotatable=0;points=[[0,0.5],[1,0.5]];portConstraint=eastwest;whiteSpace=wrap;html=1;fontSize=16;" parent="CV-hQq9GROn-2rYZleFv-87" vertex="1">
          <mxGeometry y="268" width="810" height="26" as="geometry" />
        </mxCell>
        <mxCell id="CV-hQq9GROn-2rYZleFv-132" value="+ hasVariables(string[]) : boolean" style="text;strokeColor=none;fillColor=none;align=left;verticalAlign=top;spacingLeft=4;spacingRight=4;overflow=hidden;rotatable=0;points=[[0,0.5],[1,0.5]];portConstraint=eastwest;whiteSpace=wrap;html=1;fontSize=16;" parent="CV-hQq9GROn-2rYZleFv-87" vertex="1">
          <mxGeometry y="294" width="810" height="26" as="geometry" />
        </mxCell>
        <mxCell id="CV-hQq9GROn-2rYZleFv-133" value="+ insertVariables(string[])" style="text;strokeColor=none;fillColor=none;align=left;verticalAlign=top;spacingLeft=4;spacingRight=4;overflow=hidden;rotatable=0;points=[[0,0.5],[1,0.5]];portConstraint=eastwest;whiteSpace=wrap;html=1;fontSize=16;" parent="CV-hQq9GROn-2rYZleFv-87" vertex="1">
          <mxGeometry y="320" width="810" height="26" as="geometry" />
        </mxCell>
        <mxCell id="CV-hQq9GROn-2rYZleFv-134" value="+ isZero() : boolean" style="text;strokeColor=none;fillColor=none;align=left;verticalAlign=top;spacingLeft=4;spacingRight=4;overflow=hidden;rotatable=0;points=[[0,0.5],[1,0.5]];portConstraint=eastwest;whiteSpace=wrap;html=1;fontSize=16;" parent="CV-hQq9GROn-2rYZleFv-87" vertex="1">
          <mxGeometry y="346" width="810" height="26" as="geometry" />
        </mxCell>
        <mxCell id="CV-hQq9GROn-2rYZleFv-135" value="+ lc() : number" style="text;strokeColor=none;fillColor=none;align=left;verticalAlign=top;spacingLeft=4;spacingRight=4;overflow=hidden;rotatable=0;points=[[0,0.5],[1,0.5]];portConstraint=eastwest;whiteSpace=wrap;html=1;fontSize=16;" parent="CV-hQq9GROn-2rYZleFv-87" vertex="1">
          <mxGeometry y="372" width="810" height="26" as="geometry" />
        </mxCell>
        <mxCell id="CV-hQq9GROn-2rYZleFv-136" value="+ lcm(Polynomial) : Monomial" style="text;strokeColor=none;fillColor=none;align=left;verticalAlign=top;spacingLeft=4;spacingRight=4;overflow=hidden;rotatable=0;points=[[0,0.5],[1,0.5]];portConstraint=eastwest;whiteSpace=wrap;html=1;fontSize=16;" parent="CV-hQq9GROn-2rYZleFv-87" vertex="1">
          <mxGeometry y="398" width="810" height="26" as="geometry" />
        </mxCell>
        <mxCell id="CV-hQq9GROn-2rYZleFv-137" value="+ lm() : Monomial" style="text;strokeColor=none;fillColor=none;align=left;verticalAlign=top;spacingLeft=4;spacingRight=4;overflow=hidden;rotatable=0;points=[[0,0.5],[1,0.5]];portConstraint=eastwest;whiteSpace=wrap;html=1;fontSize=16;" parent="CV-hQq9GROn-2rYZleFv-87" vertex="1">
          <mxGeometry y="424" width="810" height="26" as="geometry" />
        </mxCell>
        <mxCell id="CV-hQq9GROn-2rYZleFv-138" value="+ lt(string) : Monomial" style="text;strokeColor=none;fillColor=none;align=left;verticalAlign=top;spacingLeft=4;spacingRight=4;overflow=hidden;rotatable=0;points=[[0,0.5],[1,0.5]];portConstraint=eastwest;whiteSpace=wrap;html=1;fontSize=16;" parent="CV-hQq9GROn-2rYZleFv-87" vertex="1">
          <mxGeometry y="450" width="810" height="26" as="geometry" />
        </mxCell>
        <mxCell id="CV-hQq9GROn-2rYZleFv-139" value="+ minus(Polynomial) : Polynomial" style="text;strokeColor=none;fillColor=none;align=left;verticalAlign=top;spacingLeft=4;spacingRight=4;overflow=hidden;rotatable=0;points=[[0,0.5],[1,0.5]];portConstraint=eastwest;whiteSpace=wrap;html=1;fontSize=16;" parent="CV-hQq9GROn-2rYZleFv-87" vertex="1">
          <mxGeometry y="476" width="810" height="26" as="geometry" />
        </mxCell>
        <mxCell id="CV-hQq9GROn-2rYZleFv-144" value="+ multiply(number | Polynomial) : Polynomial" style="text;strokeColor=none;fillColor=none;align=left;verticalAlign=top;spacingLeft=4;spacingRight=4;overflow=hidden;rotatable=0;points=[[0,0.5],[1,0.5]];portConstraint=eastwest;whiteSpace=wrap;html=1;fontSize=16;" parent="CV-hQq9GROn-2rYZleFv-87" vertex="1">
          <mxGeometry y="502" width="810" height="26" as="geometry" />
        </mxCell>
        <mxCell id="CV-hQq9GROn-2rYZleFv-145" value="- nodeToString(nerdamerNode) : string" style="text;strokeColor=none;fillColor=none;align=left;verticalAlign=top;spacingLeft=4;spacingRight=4;overflow=hidden;rotatable=0;points=[[0,0.5],[1,0.5]];portConstraint=eastwest;whiteSpace=wrap;html=1;fontSize=16;" parent="CV-hQq9GROn-2rYZleFv-87" vertex="1">
          <mxGeometry y="528" width="810" height="26" as="geometry" />
        </mxCell>
        <mxCell id="CV-hQq9GROn-2rYZleFv-146" value="+ plus(Polynomial) : Polynomial" style="text;strokeColor=none;fillColor=none;align=left;verticalAlign=top;spacingLeft=4;spacingRight=4;overflow=hidden;rotatable=0;points=[[0,0.5],[1,0.5]];portConstraint=eastwest;whiteSpace=wrap;html=1;fontSize=16;" parent="CV-hQq9GROn-2rYZleFv-87" vertex="1">
          <mxGeometry y="554" width="810" height="26" as="geometry" />
        </mxCell>
        <mxCell id="CV-hQq9GROn-2rYZleFv-147" value="+ pushVariables(string[])" style="text;strokeColor=none;fillColor=none;align=left;verticalAlign=top;spacingLeft=4;spacingRight=4;overflow=hidden;rotatable=0;points=[[0,0.5],[1,0.5]];portConstraint=eastwest;whiteSpace=wrap;html=1;fontSize=16;" parent="CV-hQq9GROn-2rYZleFv-87" vertex="1">
          <mxGeometry y="580" width="810" height="26" as="geometry" />
        </mxCell>
        <mxCell id="CV-hQq9GROn-2rYZleFv-148" value="+ reduces(Polynomial[]) : boolean" style="text;strokeColor=none;fillColor=none;align=left;verticalAlign=top;spacingLeft=4;spacingRight=4;overflow=hidden;rotatable=0;points=[[0,0.5],[1,0.5]];portConstraint=eastwest;whiteSpace=wrap;html=1;fontSize=16;" parent="CV-hQq9GROn-2rYZleFv-87" vertex="1">
          <mxGeometry y="606" width="810" height="26" as="geometry" />
        </mxCell>
        <mxCell id="CV-hQq9GROn-2rYZleFv-149" value="+ removeVariables(string[])" style="text;strokeColor=none;fillColor=none;align=left;verticalAlign=top;spacingLeft=4;spacingRight=4;overflow=hidden;rotatable=0;points=[[0,0.5],[1,0.5]];portConstraint=eastwest;whiteSpace=wrap;html=1;fontSize=16;" parent="CV-hQq9GROn-2rYZleFv-87" vertex="1">
          <mxGeometry y="632" width="810" height="26" as="geometry" />
        </mxCell>
        <mxCell id="CV-hQq9GROn-2rYZleFv-150" value="+ sameVars(Polynomial) : boolean" style="text;strokeColor=none;fillColor=none;align=left;verticalAlign=top;spacingLeft=4;spacingRight=4;overflow=hidden;rotatable=0;points=[[0,0.5],[1,0.5]];portConstraint=eastwest;whiteSpace=wrap;html=1;fontSize=16;" parent="CV-hQq9GROn-2rYZleFv-87" vertex="1">
          <mxGeometry y="658" width="810" height="26" as="geometry" />
        </mxCell>
        <mxCell id="CV-hQq9GROn-2rYZleFv-151" value="+ slc() : number" style="text;strokeColor=none;fillColor=none;align=left;verticalAlign=top;spacingLeft=4;spacingRight=4;overflow=hidden;rotatable=0;points=[[0,0.5],[1,0.5]];portConstraint=eastwest;whiteSpace=wrap;html=1;fontSize=16;" parent="CV-hQq9GROn-2rYZleFv-87" vertex="1">
          <mxGeometry y="684" width="810" height="26" as="geometry" />
        </mxCell>
        <mxCell id="CV-hQq9GROn-2rYZleFv-152" value="+ slm() : Monomial" style="text;strokeColor=none;fillColor=none;align=left;verticalAlign=top;spacingLeft=4;spacingRight=4;overflow=hidden;rotatable=0;points=[[0,0.5],[1,0.5]];portConstraint=eastwest;whiteSpace=wrap;html=1;fontSize=16;" parent="CV-hQq9GROn-2rYZleFv-87" vertex="1">
          <mxGeometry y="710" width="810" height="26" as="geometry" />
        </mxCell>
        <mxCell id="CV-hQq9GROn-2rYZleFv-153" value="+ slt() : Monomial" style="text;strokeColor=none;fillColor=none;align=left;verticalAlign=top;spacingLeft=4;spacingRight=4;overflow=hidden;rotatable=0;points=[[0,0.5],[1,0.5]];portConstraint=eastwest;whiteSpace=wrap;html=1;fontSize=16;" parent="CV-hQq9GROn-2rYZleFv-87" vertex="1">
          <mxGeometry y="736" width="810" height="26" as="geometry" />
        </mxCell>
        <mxCell id="CV-hQq9GROn-2rYZleFv-154" value="- strContainsChar(string, string[]) : boolean" style="text;strokeColor=none;fillColor=none;align=left;verticalAlign=top;spacingLeft=4;spacingRight=4;overflow=hidden;rotatable=0;points=[[0,0.5],[1,0.5]];portConstraint=eastwest;whiteSpace=wrap;html=1;fontSize=16;" parent="CV-hQq9GROn-2rYZleFv-87" vertex="1">
          <mxGeometry y="762" width="810" height="26" as="geometry" />
        </mxCell>
        <mxCell id="CV-hQq9GROn-2rYZleFv-155" value="+ supp() : Float64Array[]" style="text;strokeColor=none;fillColor=none;align=left;verticalAlign=top;spacingLeft=4;spacingRight=4;overflow=hidden;rotatable=0;points=[[0,0.5],[1,0.5]];portConstraint=eastwest;whiteSpace=wrap;html=1;fontSize=16;" parent="CV-hQq9GROn-2rYZleFv-87" vertex="1">
          <mxGeometry y="788" width="810" height="26" as="geometry" />
        </mxCell>
        <mxCell id="CV-hQq9GROn-2rYZleFv-156" value="+ toString() : string" style="text;strokeColor=none;fillColor=none;align=left;verticalAlign=top;spacingLeft=4;spacingRight=4;overflow=hidden;rotatable=0;points=[[0,0.5],[1,0.5]];portConstraint=eastwest;whiteSpace=wrap;html=1;fontSize=16;" parent="CV-hQq9GROn-2rYZleFv-87" vertex="1">
          <mxGeometry y="814" width="810" height="26" as="geometry" />
        </mxCell>
        <mxCell id="CV-hQq9GROn-2rYZleFv-157" value="+ useAllVariables(string[]) : boolean" style="text;strokeColor=none;fillColor=none;align=left;verticalAlign=top;spacingLeft=4;spacingRight=4;overflow=hidden;rotatable=0;points=[[0,0.5],[1,0.5]];portConstraint=eastwest;whiteSpace=wrap;html=1;fontSize=16;" parent="CV-hQq9GROn-2rYZleFv-87" vertex="1">
          <mxGeometry y="840" width="810" height="26" as="geometry" />
        </mxCell>
        <mxCell id="CV-hQq9GROn-2rYZleFv-158" value="+ useAnyVariables(string[]) : boolean" style="text;strokeColor=none;fillColor=none;align=left;verticalAlign=top;spacingLeft=4;spacingRight=4;overflow=hidden;rotatable=0;points=[[0,0.5],[1,0.5]];portConstraint=eastwest;whiteSpace=wrap;html=1;fontSize=16;" parent="CV-hQq9GROn-2rYZleFv-87" vertex="1">
          <mxGeometry y="866" width="810" height="26" as="geometry" />
        </mxCell>
        <mxCell id="CV-hQq9GROn-2rYZleFv-159" value="+ usedVars() : string[]" style="text;strokeColor=none;fillColor=none;align=left;verticalAlign=top;spacingLeft=4;spacingRight=4;overflow=hidden;rotatable=0;points=[[0,0.5],[1,0.5]];portConstraint=eastwest;whiteSpace=wrap;html=1;fontSize=16;" parent="CV-hQq9GROn-2rYZleFv-87" vertex="1">
          <mxGeometry y="892" width="810" height="26" as="geometry" />
        </mxCell>
        <mxCell id="CV-hQq9GROn-2rYZleFv-160" value="&lt;u style=&quot;font-size: 16px;&quot;&gt;- arrayCombinations(Polynomial[]) : Polynomial[][]&lt;/u&gt;" style="text;strokeColor=none;fillColor=none;align=left;verticalAlign=top;spacingLeft=4;spacingRight=4;overflow=hidden;rotatable=0;points=[[0,0.5],[1,0.5]];portConstraint=eastwest;whiteSpace=wrap;html=1;fontSize=16;" parent="CV-hQq9GROn-2rYZleFv-87" vertex="1">
          <mxGeometry y="918" width="810" height="26" as="geometry" />
        </mxCell>
        <mxCell id="CV-hQq9GROn-2rYZleFv-161" value="+ buchberger(Polynomial[], maxIter?) : Polynomial[]" style="text;strokeColor=none;fillColor=none;align=left;verticalAlign=top;spacingLeft=4;spacingRight=4;overflow=hidden;rotatable=0;points=[[0,0.5],[1,0.5]];portConstraint=eastwest;whiteSpace=wrap;html=1;fontSize=16;fontStyle=4" parent="CV-hQq9GROn-2rYZleFv-87" vertex="1">
          <mxGeometry y="944" width="810" height="26" as="geometry" />
        </mxCell>
        <mxCell id="CV-hQq9GROn-2rYZleFv-162" value="+ buchbergerReduced(Polynomial[], maxIter?) : Polynomial[]" style="text;strokeColor=none;fillColor=none;align=left;verticalAlign=top;spacingLeft=4;spacingRight=4;overflow=hidden;rotatable=0;points=[[0,0.5],[1,0.5]];portConstraint=eastwest;whiteSpace=wrap;html=1;fontSize=16;fontStyle=4" parent="CV-hQq9GROn-2rYZleFv-87" vertex="1">
          <mxGeometry y="970" width="810" height="26" as="geometry" />
        </mxCell>
        <mxCell id="CV-hQq9GROn-2rYZleFv-163" value="- criterion1(Polynomial, Polynomial) : bool" style="text;strokeColor=none;fillColor=none;align=left;verticalAlign=top;spacingLeft=4;spacingRight=4;overflow=hidden;rotatable=0;points=[[0,0.5],[1,0.5]];portConstraint=eastwest;whiteSpace=wrap;html=1;fontSize=16;fontStyle=4" parent="CV-hQq9GROn-2rYZleFv-87" vertex="1">
          <mxGeometry y="996" width="810" height="26" as="geometry" />
        </mxCell>
        <mxCell id="CV-hQq9GROn-2rYZleFv-164" value="- criterion2(Polynomial, Polynomial, Polynomial[]) : bool" style="text;strokeColor=none;fillColor=none;align=left;verticalAlign=top;spacingLeft=4;spacingRight=4;overflow=hidden;rotatable=0;points=[[0,0.5],[1,0.5]];portConstraint=eastwest;whiteSpace=wrap;html=1;fontSize=16;fontStyle=4" parent="CV-hQq9GROn-2rYZleFv-87" vertex="1">
          <mxGeometry y="1022" width="810" height="26" as="geometry" />
        </mxCell>
        <mxCell id="CV-hQq9GROn-2rYZleFv-165" value="+ exp(Polynomial[]) : Float64Array[]" style="text;strokeColor=none;fillColor=none;align=left;verticalAlign=top;spacingLeft=4;spacingRight=4;overflow=hidden;rotatable=0;points=[[0,0.5],[1,0.5]];portConstraint=eastwest;whiteSpace=wrap;html=1;fontSize=16;fontStyle=4" parent="CV-hQq9GROn-2rYZleFv-87" vertex="1">
          <mxGeometry y="1048" width="810" height="26" as="geometry" />
        </mxCell>
        <mxCell id="CV-hQq9GROn-2rYZleFv-166" value="+ expGreater(Float64Array,Float64Array) : boolean" style="text;strokeColor=none;fillColor=none;align=left;verticalAlign=top;spacingLeft=4;spacingRight=4;overflow=hidden;rotatable=0;points=[[0,0.5],[1,0.5]];portConstraint=eastwest;whiteSpace=wrap;html=1;fontSize=16;fontStyle=4" parent="CV-hQq9GROn-2rYZleFv-87" vertex="1">
          <mxGeometry y="1074" width="810" height="26" as="geometry" />
        </mxCell>
        <mxCell id="CV-hQq9GROn-2rYZleFv-167" value="+ expIsMultiple(Float64Array,Float64Array) : boolean" style="text;strokeColor=none;fillColor=none;align=left;verticalAlign=top;spacingLeft=4;spacingRight=4;overflow=hidden;rotatable=0;points=[[0,0.5],[1,0.5]];portConstraint=eastwest;whiteSpace=wrap;html=1;fontSize=16;fontStyle=4" parent="CV-hQq9GROn-2rYZleFv-87" vertex="1">
          <mxGeometry y="1100" width="810" height="26" as="geometry" />
        </mxCell>
        <mxCell id="CV-hQq9GROn-2rYZleFv-168" value="+ expMinus(Float64Array,Float64Array) : Float64Array" style="text;strokeColor=none;fillColor=none;align=left;verticalAlign=top;spacingLeft=4;spacingRight=4;overflow=hidden;rotatable=0;points=[[0,0.5],[1,0.5]];portConstraint=eastwest;whiteSpace=wrap;html=1;fontSize=16;fontStyle=4" parent="CV-hQq9GROn-2rYZleFv-87" vertex="1">
          <mxGeometry y="1126" width="810" height="26" as="geometry" />
        </mxCell>
        <mxCell id="CV-hQq9GROn-2rYZleFv-169" value="+ implicitateR3(Polynomial, Polynomial, Polynomial) : Polynomial" style="text;strokeColor=none;fillColor=none;align=left;verticalAlign=top;spacingLeft=4;spacingRight=4;overflow=hidden;rotatable=0;points=[[0,0.5],[1,0.5]];portConstraint=eastwest;whiteSpace=wrap;html=1;fontSize=16;fontStyle=4" parent="CV-hQq9GROn-2rYZleFv-87" vertex="1">
          <mxGeometry y="1152" width="810" height="26" as="geometry" />
        </mxCell>
        <mxCell id="CV-hQq9GROn-2rYZleFv-170" value="+ isGroebnerBasis(Polynomial[],Polynomial[]) : boolean" style="text;strokeColor=none;fillColor=none;align=left;verticalAlign=top;spacingLeft=4;spacingRight=4;overflow=hidden;rotatable=0;points=[[0,0.5],[1,0.5]];portConstraint=eastwest;whiteSpace=wrap;html=1;fontSize=16;fontStyle=4" parent="CV-hQq9GROn-2rYZleFv-87" vertex="1">
          <mxGeometry y="1178" width="810" height="26" as="geometry" />
        </mxCell>
        <mxCell id="CV-hQq9GROn-2rYZleFv-171" value="+ isReducedGroebnerBasis(Polynomial[],Polynomial[]) : boolean" style="text;strokeColor=none;fillColor=none;align=left;verticalAlign=top;spacingLeft=4;spacingRight=4;overflow=hidden;rotatable=0;points=[[0,0.5],[1,0.5]];portConstraint=eastwest;whiteSpace=wrap;html=1;fontSize=16;fontStyle=4" parent="CV-hQq9GROn-2rYZleFv-87" vertex="1">
          <mxGeometry y="1204" width="810" height="26" as="geometry" />
        </mxCell>
        <mxCell id="CV-hQq9GROn-2rYZleFv-172" value="+ reduce(Polynomial[]) : Polynomial[]" style="text;strokeColor=none;fillColor=none;align=left;verticalAlign=top;spacingLeft=4;spacingRight=4;overflow=hidden;rotatable=0;points=[[0,0.5],[1,0.5]];portConstraint=eastwest;whiteSpace=wrap;html=1;fontSize=16;fontStyle=4" parent="CV-hQq9GROn-2rYZleFv-87" vertex="1">
          <mxGeometry y="1230" width="810" height="26" as="geometry" />
        </mxCell>
        <mxCell id="CV-hQq9GROn-2rYZleFv-173" value="+ sPol(Polynomial, Polynomial) : Polynomial" style="text;strokeColor=none;fillColor=none;align=left;verticalAlign=top;spacingLeft=4;spacingRight=4;overflow=hidden;rotatable=0;points=[[0,0.5],[1,0.5]];portConstraint=eastwest;whiteSpace=wrap;html=1;fontSize=16;fontStyle=4" parent="CV-hQq9GROn-2rYZleFv-87" vertex="1">
          <mxGeometry y="1256" width="810" height="26" as="geometry" />
        </mxCell>
        <mxCell id="CV-hQq9GROn-2rYZleFv-93" style="edgeStyle=orthogonalEdgeStyle;rounded=0;orthogonalLoop=1;jettySize=auto;html=1;entryX=0;entryY=0.5;entryDx=0;entryDy=0;fontSize=16;exitX=1;exitY=0.159;exitDx=0;exitDy=0;exitPerimeter=0;" parent="1" source="CV-hQq9GROn-2rYZleFv-115" target="CV-hQq9GROn-2rYZleFv-193" edge="1">
          <mxGeometry relative="1" as="geometry" />
        </mxCell>
        <mxCell id="CV-hQq9GROn-2rYZleFv-94" value="monomials" style="edgeLabel;html=1;align=center;verticalAlign=middle;resizable=0;points=[];fontSize=16;" parent="CV-hQq9GROn-2rYZleFv-93" vertex="1" connectable="0">
          <mxGeometry x="0.2928" y="-1" relative="1" as="geometry">
            <mxPoint x="7" y="-16" as="offset" />
          </mxGeometry>
        </mxCell>
        <mxCell id="CV-hQq9GROn-2rYZleFv-95" value="1..*" style="edgeLabel;html=1;align=center;verticalAlign=middle;resizable=0;points=[];fontSize=16;" parent="CV-hQq9GROn-2rYZleFv-93" vertex="1" connectable="0">
          <mxGeometry x="-0.2306" y="-2" relative="1" as="geometry">
            <mxPoint x="68" y="14" as="offset" />
          </mxGeometry>
        </mxCell>
        <mxCell id="CV-hQq9GROn-2rYZleFv-105" style="edgeStyle=orthogonalEdgeStyle;rounded=0;orthogonalLoop=1;jettySize=auto;html=1;fontSize=16;entryX=0;entryY=0.5;entryDx=0;entryDy=0;" parent="1" source="CV-hQq9GROn-2rYZleFv-96" target="CV-hQq9GROn-2rYZleFv-90" edge="1">
          <mxGeometry relative="1" as="geometry">
            <mxPoint x="-240" y="680" as="targetPoint" />
          </mxGeometry>
        </mxCell>
        <mxCell id="CV-hQq9GROn-2rYZleFv-106" value="generators" style="edgeLabel;html=1;align=center;verticalAlign=middle;resizable=0;points=[];fontSize=16;" parent="CV-hQq9GROn-2rYZleFv-105" vertex="1" connectable="0">
          <mxGeometry x="0.3595" y="-1" relative="1" as="geometry">
            <mxPoint x="61" y="-15" as="offset" />
          </mxGeometry>
        </mxCell>
        <mxCell id="CV-hQq9GROn-2rYZleFv-107" value="1..*" style="edgeLabel;html=1;align=center;verticalAlign=middle;resizable=0;points=[];fontSize=16;" parent="CV-hQq9GROn-2rYZleFv-105" vertex="1" connectable="0">
          <mxGeometry x="0.6809" y="-1" relative="1" as="geometry">
            <mxPoint x="7" y="9" as="offset" />
          </mxGeometry>
        </mxCell>
        <mxCell id="CV-hQq9GROn-2rYZleFv-96" value="Ideal" style="swimlane;fontStyle=1;align=center;verticalAlign=top;childLayout=stackLayout;horizontal=1;startSize=26;horizontalStack=0;resizeParent=1;resizeParentMax=0;resizeLast=0;collapsible=1;marginBottom=0;whiteSpace=wrap;html=1;fontSize=16;" parent="1" vertex="1">
          <mxGeometry x="-660" y="780" width="287" height="112" as="geometry" />
        </mxCell>
        <mxCell id="CV-hQq9GROn-2rYZleFv-98" value="" style="line;strokeWidth=1;fillColor=none;align=left;verticalAlign=middle;spacingTop=-1;spacingLeft=3;spacingRight=3;rotatable=0;labelPosition=right;points=[];portConstraint=eastwest;strokeColor=inherit;fontSize=16;" parent="CV-hQq9GROn-2rYZleFv-96" vertex="1">
          <mxGeometry y="26" width="287" height="8" as="geometry" />
        </mxCell>
        <mxCell id="CV-hQq9GROn-2rYZleFv-100" value="+ Ideal(Polynomial[])" style="text;strokeColor=none;fillColor=none;align=left;verticalAlign=top;spacingLeft=4;spacingRight=4;overflow=hidden;rotatable=0;points=[[0,0.5],[1,0.5]];portConstraint=eastwest;whiteSpace=wrap;html=1;fontSize=16;" parent="CV-hQq9GROn-2rYZleFv-96" vertex="1">
          <mxGeometry y="34" width="287" height="26" as="geometry" />
        </mxCell>
        <mxCell id="CV-hQq9GROn-2rYZleFv-109" value="+ intersect(Ideal) : Ideal" style="text;strokeColor=none;fillColor=none;align=left;verticalAlign=top;spacingLeft=4;spacingRight=4;overflow=hidden;rotatable=0;points=[[0,0.5],[1,0.5]];portConstraint=eastwest;whiteSpace=wrap;html=1;fontSize=16;" parent="CV-hQq9GROn-2rYZleFv-96" vertex="1">
          <mxGeometry y="60" width="287" height="26" as="geometry" />
        </mxCell>
        <mxCell id="CV-hQq9GROn-2rYZleFv-111" value="+ multiply(Polynomial) : Ideal" style="text;strokeColor=none;fillColor=none;align=left;verticalAlign=top;spacingLeft=4;spacingRight=4;overflow=hidden;rotatable=0;points=[[0,0.5],[1,0.5]];portConstraint=eastwest;whiteSpace=wrap;html=1;fontSize=16;" parent="CV-hQq9GROn-2rYZleFv-96" vertex="1">
          <mxGeometry y="86" width="287" height="26" as="geometry" />
        </mxCell>
        <mxCell id="CV-hQq9GROn-2rYZleFv-190" value="Monomial" style="swimlane;fontStyle=1;align=center;verticalAlign=top;childLayout=stackLayout;horizontal=1;startSize=26;horizontalStack=0;resizeParent=1;resizeParentMax=0;resizeLast=0;collapsible=1;marginBottom=0;whiteSpace=wrap;html=1;fontSize=16;" parent="1" vertex="1">
          <mxGeometry x="760" y="670" width="430" height="866" as="geometry" />
        </mxCell>
        <mxCell id="CV-hQq9GROn-2rYZleFv-191" value="- coef : ExactNumberType" style="text;strokeColor=none;fillColor=none;align=left;verticalAlign=top;spacingLeft=4;spacingRight=4;overflow=hidden;rotatable=0;points=[[0,0.5],[1,0.5]];portConstraint=eastwest;whiteSpace=wrap;html=1;fontSize=16;" parent="CV-hQq9GROn-2rYZleFv-190" vertex="1">
          <mxGeometry y="26" width="430" height="26" as="geometry" />
        </mxCell>
        <mxCell id="CV-hQq9GROn-2rYZleFv-193" value="- exp : Float64Array" style="text;strokeColor=none;fillColor=none;align=left;verticalAlign=top;spacingLeft=4;spacingRight=4;overflow=hidden;rotatable=0;points=[[0,0.5],[1,0.5]];portConstraint=eastwest;whiteSpace=wrap;html=1;fontSize=16;" parent="CV-hQq9GROn-2rYZleFv-190" vertex="1">
          <mxGeometry y="52" width="430" height="26" as="geometry" />
        </mxCell>
        <mxCell id="CV-hQq9GROn-2rYZleFv-194" value="- vars : string[]&amp;nbsp;" style="text;strokeColor=none;fillColor=none;align=left;verticalAlign=top;spacingLeft=4;spacingRight=4;overflow=hidden;rotatable=0;points=[[0,0.5],[1,0.5]];portConstraint=eastwest;whiteSpace=wrap;html=1;fontSize=16;" parent="CV-hQq9GROn-2rYZleFv-190" vertex="1">
          <mxGeometry y="78" width="430" height="26" as="geometry" />
        </mxCell>
        <mxCell id="CV-hQq9GROn-2rYZleFv-192" value="" style="line;strokeWidth=1;fillColor=none;align=left;verticalAlign=middle;spacingTop=-1;spacingLeft=3;spacingRight=3;rotatable=0;labelPosition=right;points=[];portConstraint=eastwest;strokeColor=inherit;fontSize=16;" parent="CV-hQq9GROn-2rYZleFv-190" vertex="1">
          <mxGeometry y="104" width="430" height="8" as="geometry" />
        </mxCell>
        <mxCell id="CV-hQq9GROn-2rYZleFv-195" value="+ clone() : Monomial" style="text;strokeColor=none;fillColor=none;align=left;verticalAlign=top;spacingLeft=4;spacingRight=4;overflow=hidden;rotatable=0;points=[[0,0.5],[1,0.5]];portConstraint=eastwest;whiteSpace=wrap;html=1;fontSize=16;" parent="CV-hQq9GROn-2rYZleFv-190" vertex="1">
          <mxGeometry y="112" width="430" height="26" as="geometry" />
        </mxCell>
        <mxCell id="CV-hQq9GROn-2rYZleFv-196" value="+ divide(numbe | Monomial) : Monomial" style="text;strokeColor=none;fillColor=none;align=left;verticalAlign=top;spacingLeft=4;spacingRight=4;overflow=hidden;rotatable=0;points=[[0,0.5],[1,0.5]];portConstraint=eastwest;whiteSpace=wrap;html=1;fontSize=16;" parent="CV-hQq9GROn-2rYZleFv-190" vertex="1">
          <mxGeometry y="138" width="430" height="26" as="geometry" />
        </mxCell>
        <mxCell id="CV-hQq9GROn-2rYZleFv-197" value="+ divides(Monomial) : boolean" style="text;strokeColor=none;fillColor=none;align=left;verticalAlign=top;spacingLeft=4;spacingRight=4;overflow=hidden;rotatable=0;points=[[0,0.5],[1,0.5]];portConstraint=eastwest;whiteSpace=wrap;html=1;fontSize=16;" parent="CV-hQq9GROn-2rYZleFv-190" vertex="1">
          <mxGeometry y="164" width="430" height="26" as="geometry" />
        </mxCell>
        <mxCell id="R1vY9NnCzB2_1B6ub0-K-1" value="+ equalCoef(Monomial) : boolean" style="text;strokeColor=none;fillColor=none;align=left;verticalAlign=top;spacingLeft=4;spacingRight=4;overflow=hidden;rotatable=0;points=[[0,0.5],[1,0.5]];portConstraint=eastwest;whiteSpace=wrap;html=1;fontSize=16;" vertex="1" parent="CV-hQq9GROn-2rYZleFv-190">
          <mxGeometry y="190" width="430" height="26" as="geometry" />
        </mxCell>
        <mxCell id="R1vY9NnCzB2_1B6ub0-K-2" value="+ equalExponent(Monomial) : boolean" style="text;strokeColor=none;fillColor=none;align=left;verticalAlign=top;spacingLeft=4;spacingRight=4;overflow=hidden;rotatable=0;points=[[0,0.5],[1,0.5]];portConstraint=eastwest;whiteSpace=wrap;html=1;fontSize=16;" vertex="1" parent="CV-hQq9GROn-2rYZleFv-190">
          <mxGeometry y="216" width="430" height="26" as="geometry" />
        </mxCell>
        <mxCell id="R1vY9NnCzB2_1B6ub0-K-3" value="+ equals(Monomial) : boolean" style="text;strokeColor=none;fillColor=none;align=left;verticalAlign=top;spacingLeft=4;spacingRight=4;overflow=hidden;rotatable=0;points=[[0,0.5],[1,0.5]];portConstraint=eastwest;whiteSpace=wrap;html=1;fontSize=16;" vertex="1" parent="CV-hQq9GROn-2rYZleFv-190">
          <mxGeometry y="242" width="430" height="26" as="geometry" />
        </mxCell>
        <mxCell id="CV-hQq9GROn-2rYZleFv-199" value="+ gcd(Monomial) : Monomial" style="text;strokeColor=none;fillColor=none;align=left;verticalAlign=top;spacingLeft=4;spacingRight=4;overflow=hidden;rotatable=0;points=[[0,0.5],[1,0.5]];portConstraint=eastwest;whiteSpace=wrap;html=1;fontSize=16;" parent="CV-hQq9GROn-2rYZleFv-190" vertex="1">
          <mxGeometry y="268" width="430" height="26" as="geometry" />
        </mxCell>
        <mxCell id="R1vY9NnCzB2_1B6ub0-K-4" value="+ getCoef() : number" style="text;strokeColor=none;fillColor=none;align=left;verticalAlign=top;spacingLeft=4;spacingRight=4;overflow=hidden;rotatable=0;points=[[0,0.5],[1,0.5]];portConstraint=eastwest;whiteSpace=wrap;html=1;fontSize=16;" vertex="1" parent="CV-hQq9GROn-2rYZleFv-190">
          <mxGeometry y="294" width="430" height="26" as="geometry" />
        </mxCell>
        <mxCell id="R1vY9NnCzB2_1B6ub0-K-5" value="+ getExp() : Float64Array" style="text;strokeColor=none;fillColor=none;align=left;verticalAlign=top;spacingLeft=4;spacingRight=4;overflow=hidden;rotatable=0;points=[[0,0.5],[1,0.5]];portConstraint=eastwest;whiteSpace=wrap;html=1;fontSize=16;" vertex="1" parent="CV-hQq9GROn-2rYZleFv-190">
          <mxGeometry y="320" width="430" height="26" as="geometry" />
        </mxCell>
        <mxCell id="CV-hQq9GROn-2rYZleFv-201" value="+ getVars() : string[]" style="text;strokeColor=none;fillColor=none;align=left;verticalAlign=top;spacingLeft=4;spacingRight=4;overflow=hidden;rotatable=0;points=[[0,0.5],[1,0.5]];portConstraint=eastwest;whiteSpace=wrap;html=1;fontSize=16;" parent="CV-hQq9GROn-2rYZleFv-190" vertex="1">
          <mxGeometry y="346" width="430" height="26" as="geometry" />
        </mxCell>
        <mxCell id="CV-hQq9GROn-2rYZleFv-203" value="+ insertVariables(string[])" style="text;strokeColor=none;fillColor=none;align=left;verticalAlign=top;spacingLeft=4;spacingRight=4;overflow=hidden;rotatable=0;points=[[0,0.5],[1,0.5]];portConstraint=eastwest;whiteSpace=wrap;html=1;fontSize=16;" parent="CV-hQq9GROn-2rYZleFv-190" vertex="1">
          <mxGeometry y="372" width="430" height="26" as="geometry" />
        </mxCell>
        <mxCell id="R1vY9NnCzB2_1B6ub0-K-6" value="+ isOne() : boolean" style="text;strokeColor=none;fillColor=none;align=left;verticalAlign=top;spacingLeft=4;spacingRight=4;overflow=hidden;rotatable=0;points=[[0,0.5],[1,0.5]];portConstraint=eastwest;whiteSpace=wrap;html=1;fontSize=16;" vertex="1" parent="CV-hQq9GROn-2rYZleFv-190">
          <mxGeometry y="398" width="430" height="26" as="geometry" />
        </mxCell>
        <mxCell id="CV-hQq9GROn-2rYZleFv-204" value="+ isZero() : boolean" style="text;strokeColor=none;fillColor=none;align=left;verticalAlign=top;spacingLeft=4;spacingRight=4;overflow=hidden;rotatable=0;points=[[0,0.5],[1,0.5]];portConstraint=eastwest;whiteSpace=wrap;html=1;fontSize=16;" parent="CV-hQq9GROn-2rYZleFv-190" vertex="1">
          <mxGeometry y="424" width="430" height="26" as="geometry" />
        </mxCell>
        <mxCell id="CV-hQq9GROn-2rYZleFv-206" value="+ lcm(Monomial) : Monomial" style="text;strokeColor=none;fillColor=none;align=left;verticalAlign=top;spacingLeft=4;spacingRight=4;overflow=hidden;rotatable=0;points=[[0,0.5],[1,0.5]];portConstraint=eastwest;whiteSpace=wrap;html=1;fontSize=16;" parent="CV-hQq9GROn-2rYZleFv-190" vertex="1">
          <mxGeometry y="450" width="430" height="26" as="geometry" />
        </mxCell>
        <mxCell id="R1vY9NnCzB2_1B6ub0-K-7" value="+ multiply(number | Monomial) : Monomial" style="text;strokeColor=none;fillColor=none;align=left;verticalAlign=top;spacingLeft=4;spacingRight=4;overflow=hidden;rotatable=0;points=[[0,0.5],[1,0.5]];portConstraint=eastwest;whiteSpace=wrap;html=1;fontSize=16;" vertex="1" parent="CV-hQq9GROn-2rYZleFv-190">
          <mxGeometry y="476" width="430" height="26" as="geometry" />
        </mxCell>
        <mxCell id="CV-hQq9GROn-2rYZleFv-212" value="+ plus(Monomial) : Monomial" style="text;strokeColor=none;fillColor=none;align=left;verticalAlign=top;spacingLeft=4;spacingRight=4;overflow=hidden;rotatable=0;points=[[0,0.5],[1,0.5]];portConstraint=eastwest;whiteSpace=wrap;html=1;fontSize=16;" parent="CV-hQq9GROn-2rYZleFv-190" vertex="1">
          <mxGeometry y="502" width="430" height="26" as="geometry" />
        </mxCell>
        <mxCell id="CV-hQq9GROn-2rYZleFv-213" value="+ pushVariables(string[])" style="text;strokeColor=none;fillColor=none;align=left;verticalAlign=top;spacingLeft=4;spacingRight=4;overflow=hidden;rotatable=0;points=[[0,0.5],[1,0.5]];portConstraint=eastwest;whiteSpace=wrap;html=1;fontSize=16;" parent="CV-hQq9GROn-2rYZleFv-190" vertex="1">
          <mxGeometry y="528" width="430" height="26" as="geometry" />
        </mxCell>
        <mxCell id="CV-hQq9GROn-2rYZleFv-215" value="+ removeVariables(string[])" style="text;strokeColor=none;fillColor=none;align=left;verticalAlign=top;spacingLeft=4;spacingRight=4;overflow=hidden;rotatable=0;points=[[0,0.5],[1,0.5]];portConstraint=eastwest;whiteSpace=wrap;html=1;fontSize=16;" parent="CV-hQq9GROn-2rYZleFv-190" vertex="1">
          <mxGeometry y="554" width="430" height="26" as="geometry" />
        </mxCell>
        <mxCell id="CV-hQq9GROn-2rYZleFv-216" value="+ sameVars(Monomial) : boolean" style="text;strokeColor=none;fillColor=none;align=left;verticalAlign=top;spacingLeft=4;spacingRight=4;overflow=hidden;rotatable=0;points=[[0,0.5],[1,0.5]];portConstraint=eastwest;whiteSpace=wrap;html=1;fontSize=16;" parent="CV-hQq9GROn-2rYZleFv-190" vertex="1">
          <mxGeometry y="580" width="430" height="26" as="geometry" />
        </mxCell>
        <mxCell id="R1vY9NnCzB2_1B6ub0-K-8" value="+ setCoef(number | ExactNumberType)" style="text;strokeColor=none;fillColor=none;align=left;verticalAlign=top;spacingLeft=4;spacingRight=4;overflow=hidden;rotatable=0;points=[[0,0.5],[1,0.5]];portConstraint=eastwest;whiteSpace=wrap;html=1;fontSize=16;" vertex="1" parent="CV-hQq9GROn-2rYZleFv-190">
          <mxGeometry y="606" width="430" height="26" as="geometry" />
        </mxCell>
        <mxCell id="R1vY9NnCzB2_1B6ub0-K-9" value="+ setExp(Float64Array)" style="text;strokeColor=none;fillColor=none;align=left;verticalAlign=top;spacingLeft=4;spacingRight=4;overflow=hidden;rotatable=0;points=[[0,0.5],[1,0.5]];portConstraint=eastwest;whiteSpace=wrap;html=1;fontSize=16;" vertex="1" parent="CV-hQq9GROn-2rYZleFv-190">
          <mxGeometry y="632" width="430" height="26" as="geometry" />
        </mxCell>
        <mxCell id="R1vY9NnCzB2_1B6ub0-K-10" value="+ toPolynomial() : Polynomial" style="text;strokeColor=none;fillColor=none;align=left;verticalAlign=top;spacingLeft=4;spacingRight=4;overflow=hidden;rotatable=0;points=[[0,0.5],[1,0.5]];portConstraint=eastwest;whiteSpace=wrap;html=1;fontSize=16;" vertex="1" parent="CV-hQq9GROn-2rYZleFv-190">
          <mxGeometry y="658" width="430" height="26" as="geometry" />
        </mxCell>
        <mxCell id="CV-hQq9GROn-2rYZleFv-222" value="+ toString() : string" style="text;strokeColor=none;fillColor=none;align=left;verticalAlign=top;spacingLeft=4;spacingRight=4;overflow=hidden;rotatable=0;points=[[0,0.5],[1,0.5]];portConstraint=eastwest;whiteSpace=wrap;html=1;fontSize=16;" parent="CV-hQq9GROn-2rYZleFv-190" vertex="1">
          <mxGeometry y="684" width="430" height="26" as="geometry" />
        </mxCell>
        <mxCell id="R1vY9NnCzB2_1B6ub0-K-11" value="+ one(string[]) : Monomial" style="text;strokeColor=none;fillColor=none;align=left;verticalAlign=top;spacingLeft=4;spacingRight=4;overflow=hidden;rotatable=0;points=[[0,0.5],[1,0.5]];portConstraint=eastwest;whiteSpace=wrap;html=1;fontSize=16;fontStyle=4" vertex="1" parent="CV-hQq9GROn-2rYZleFv-190">
          <mxGeometry y="710" width="430" height="26" as="geometry" />
        </mxCell>
        <mxCell id="R1vY9NnCzB2_1B6ub0-K-12" value="+ t() : Monomial" style="text;strokeColor=none;fillColor=none;align=left;verticalAlign=top;spacingLeft=4;spacingRight=4;overflow=hidden;rotatable=0;points=[[0,0.5],[1,0.5]];portConstraint=eastwest;whiteSpace=wrap;html=1;fontSize=16;fontStyle=4" vertex="1" parent="CV-hQq9GROn-2rYZleFv-190">
          <mxGeometry y="736" width="430" height="26" as="geometry" />
        </mxCell>
        <mxCell id="R1vY9NnCzB2_1B6ub0-K-16" value="+ x() : Monomial" style="text;strokeColor=none;fillColor=none;align=left;verticalAlign=top;spacingLeft=4;spacingRight=4;overflow=hidden;rotatable=0;points=[[0,0.5],[1,0.5]];portConstraint=eastwest;whiteSpace=wrap;html=1;fontSize=16;fontStyle=4" vertex="1" parent="CV-hQq9GROn-2rYZleFv-190">
          <mxGeometry y="762" width="430" height="26" as="geometry" />
        </mxCell>
        <mxCell id="R1vY9NnCzB2_1B6ub0-K-17" value="+ y() : Monomial" style="text;strokeColor=none;fillColor=none;align=left;verticalAlign=top;spacingLeft=4;spacingRight=4;overflow=hidden;rotatable=0;points=[[0,0.5],[1,0.5]];portConstraint=eastwest;whiteSpace=wrap;html=1;fontSize=16;fontStyle=4" vertex="1" parent="CV-hQq9GROn-2rYZleFv-190">
          <mxGeometry y="788" width="430" height="26" as="geometry" />
        </mxCell>
        <mxCell id="R1vY9NnCzB2_1B6ub0-K-18" value="+ z() : Monomial" style="text;strokeColor=none;fillColor=none;align=left;verticalAlign=top;spacingLeft=4;spacingRight=4;overflow=hidden;rotatable=0;points=[[0,0.5],[1,0.5]];portConstraint=eastwest;whiteSpace=wrap;html=1;fontSize=16;fontStyle=4" vertex="1" parent="CV-hQq9GROn-2rYZleFv-190">
          <mxGeometry y="814" width="430" height="26" as="geometry" />
        </mxCell>
        <mxCell id="R1vY9NnCzB2_1B6ub0-K-19" value="+ zero(string[]) : Monomial" style="text;strokeColor=none;fillColor=none;align=left;verticalAlign=top;spacingLeft=4;spacingRight=4;overflow=hidden;rotatable=0;points=[[0,0.5],[1,0.5]];portConstraint=eastwest;whiteSpace=wrap;html=1;fontSize=16;fontStyle=4" vertex="1" parent="CV-hQq9GROn-2rYZleFv-190">
          <mxGeometry y="840" width="430" height="26" as="geometry" />
        </mxCell>
        <mxCell id="R1vY9NnCzB2_1B6ub0-K-20" style="edgeStyle=orthogonalEdgeStyle;rounded=0;orthogonalLoop=1;jettySize=auto;html=1;entryX=1;entryY=0.5;entryDx=0;entryDy=0;dashed=1;exitX=0;exitY=0.5;exitDx=0;exitDy=0;fontSize=16;" edge="1" parent="1" source="R1vY9NnCzB2_1B6ub0-K-10" target="CV-hQq9GROn-2rYZleFv-150">
          <mxGeometry relative="1" as="geometry" />
        </mxCell>
        <mxCell id="R1vY9NnCzB2_1B6ub0-K-22" value="&lt;font style=&quot;font-size: 16px;&quot;&gt;multivariate-polynomial&lt;/font&gt;" style="shape=umlFrame;whiteSpace=wrap;html=1;pointerEvents=0;width=220;height=30;" vertex="1" parent="1">
          <mxGeometry x="-720" y="630" width="1980" height="1360" as="geometry" />
        </mxCell>
        <mxCell id="R1vY9NnCzB2_1B6ub0-K-23" value="-9*x*y+2*x*z^2Â  :Â  Node {&#xa;Â  type: &#39;OPERATOR&#39;,&#xa;Â  value: &#39;+&#39;,&#xa;Â  right: Node {&#xa;Â  Â  type: &#39;OPERATOR&#39;,&#xa;Â  Â  value: &#39;*&#39;,&#xa;Â  Â  right: Node { type: &#39;OPERATOR&#39;, value: &#39;^&#39;, right: [Node], left: [Node] },&#xa;Â  Â  left: Node { type: &#39;OPERATOR&#39;, value: &#39;*&#39;, right: [Node], left: [Node] }&#xa;Â  },&#xa;Â  left: Node {&#xa;Â  Â  type: &#39;OPERATOR&#39;,&#xa;Â  Â  value: &#39;-&#39;,&#xa;Â  Â  left: Node { type: &#39;OPERATOR&#39;, value: &#39;*&#39;, right: [Node], left: [Node] }&#xa;Â  }&#xa;}" style="text;whiteSpace=wrap;" vertex="1" parent="1">
          <mxGeometry x="-440" y="2040" width="420" height="240" as="geometry" />
        </mxCell>
        <mxCell id="R1vY9NnCzB2_1B6ub0-K-25" value="$$y$$" style="rounded=0;whiteSpace=wrap;html=1;" vertex="1" parent="1">
          <mxGeometry x="407" y="2151" width="30" height="30" as="geometry" />
        </mxCell>
        <mxCell id="R1vY9NnCzB2_1B6ub0-K-26" value="TREEÂ  x*y^2+x^2*y+y^2Â  :Â  Node {&#xa;Â  type: &#39;OPERATOR&#39;,&#xa;Â  value: &#39;+&#39;,&#xa;Â  right: Node {&#xa;Â  Â  type: &#39;OPERATOR&#39;,&#xa;Â  Â  value: &#39;^&#39;,&#xa;Â  Â  right: Node { type: &#39;VARIABLE_OR_LITERAL&#39;, value: &#39;2&#39; },&#xa;Â  Â  left: Node { type: &#39;VARIABLE_OR_LITERAL&#39;, value: &#39;y&#39; }&#xa;Â  },&#xa;Â  left: Node {&#xa;Â  Â  type: &#39;OPERATOR&#39;,&#xa;Â  Â  value: &#39;+&#39;,&#xa;Â  Â  right: Node { type: &#39;OPERATOR&#39;, value: &#39;*&#39;, right: [Node], left: [Node] },&#xa;Â  Â  left: Node { type: &#39;OPERATOR&#39;, value: &#39;*&#39;, right: [Node], left: [Node] }&#xa;Â  }&#xa;}&#xa;TREEÂ  (x*(y^2))+((x^2)*y)Â  :Â  Node {&#xa;Â  type: &#39;OPERATOR&#39;,&#xa;Â  value: &#39;+&#39;,&#xa;Â  right: Node {&#xa;Â  Â  type: &#39;OPERATOR&#39;,&#xa;Â  Â  value: &#39;*&#39;,&#xa;Â  Â  right: Node { type: &#39;VARIABLE_OR_LITERAL&#39;, value: &#39;y&#39; },&#xa;Â  Â  left: Node { type: &#39;OPERATOR&#39;, value: &#39;^&#39;, right: [Node], left: [Node] }&#xa;Â  },&#xa;Â  left: Node {&#xa;Â  Â  type: &#39;OPERATOR&#39;,&#xa;Â  Â  value: &#39;*&#39;,&#xa;Â  Â  right: Node { type: &#39;OPERATOR&#39;, value: &#39;^&#39;, right: [Node], left: [Node] },&#xa;Â  Â  left: Node { type: &#39;VARIABLE_OR_LITERAL&#39;, value: &#39;x&#39; }&#xa;Â  }&#xa;}&#xa;TREEÂ  x*(y^2)Â  :Â  Node {&#xa;Â  type: &#39;OPERATOR&#39;,&#xa;Â  value: &#39;*&#39;,&#xa;Â  right: Node {&#xa;Â  Â  type: &#39;OPERATOR&#39;,&#xa;Â  Â  value: &#39;^&#39;,&#xa;Â  Â  right: Node { type: &#39;VARIABLE_OR_LITERAL&#39;, value: &#39;2&#39; },&#xa;Â  Â  left: Node { type: &#39;VARIABLE_OR_LITERAL&#39;, value: &#39;y&#39; }&#xa;Â  },&#xa;Â  left: Node { type: &#39;VARIABLE_OR_LITERAL&#39;, value: &#39;x&#39; }&#xa;}&#xa;TREEÂ  (x^2)*yÂ  :Â  Node {&#xa;Â  type: &#39;OPERATOR&#39;,&#xa;Â  value: &#39;*&#39;,&#xa;Â  right: Node { type: &#39;VARIABLE_OR_LITERAL&#39;, value: &#39;y&#39; },&#xa;Â  left: Node {&#xa;Â  Â  type: &#39;OPERATOR&#39;,&#xa;Â  Â  value: &#39;^&#39;,&#xa;Â  Â  right: Node { type: &#39;VARIABLE_OR_LITERAL&#39;, value: &#39;2&#39; },&#xa;Â  Â  left: Node { type: &#39;VARIABLE_OR_LITERAL&#39;, value: &#39;x&#39; }&#xa;Â  }&#xa;}&#xa;TREEÂ  y^2Â  :Â  Node {&#xa;Â  type: &#39;OPERATOR&#39;,&#xa;Â  value: &#39;^&#39;,&#xa;Â  right: Node { type: &#39;VARIABLE_OR_LITERAL&#39;, value: &#39;2&#39; },&#xa;Â  left: Node { type: &#39;VARIABLE_OR_LITERAL&#39;, value: &#39;y&#39; }&#xa;}" style="text;whiteSpace=wrap;" vertex="1" parent="1">
          <mxGeometry x="-600" y="2350" width="420" height="890" as="geometry" />
        </mxCell>
        <mxCell id="R1vY9NnCzB2_1B6ub0-K-33" style="rounded=0;orthogonalLoop=1;jettySize=auto;html=1;exitX=1;exitY=1;exitDx=0;exitDy=0;entryX=0.5;entryY=0;entryDx=0;entryDy=0;endArrow=none;endFill=0;" edge="1" parent="1" source="R1vY9NnCzB2_1B6ub0-K-27" target="R1vY9NnCzB2_1B6ub0-K-28">
          <mxGeometry relative="1" as="geometry" />
        </mxCell>
        <mxCell id="R1vY9NnCzB2_1B6ub0-K-37" style="edgeStyle=none;rounded=0;orthogonalLoop=1;jettySize=auto;html=1;exitX=0;exitY=1;exitDx=0;exitDy=0;entryX=0.5;entryY=0;entryDx=0;entryDy=0;" edge="1" parent="1" source="R1vY9NnCzB2_1B6ub0-K-27" target="R1vY9NnCzB2_1B6ub0-K-36">
          <mxGeometry relative="1" as="geometry" />
        </mxCell>
        <mxCell id="R1vY9NnCzB2_1B6ub0-K-27" value="$$+$$" style="ellipse;whiteSpace=wrap;html=1;aspect=fixed;fillColor=#dae8fc;strokeColor=#6c8ebf;" vertex="1" parent="1">
          <mxGeometry x="339" y="2048" width="28" height="28" as="geometry" />
        </mxCell>
        <mxCell id="R1vY9NnCzB2_1B6ub0-K-31" style="rounded=0;orthogonalLoop=1;jettySize=auto;html=1;exitX=0;exitY=1;exitDx=0;exitDy=0;entryX=0.5;entryY=0;entryDx=0;entryDy=0;endArrow=none;endFill=0;" edge="1" parent="1" source="R1vY9NnCzB2_1B6ub0-K-28" target="R1vY9NnCzB2_1B6ub0-K-25">
          <mxGeometry relative="1" as="geometry" />
        </mxCell>
        <mxCell id="R1vY9NnCzB2_1B6ub0-K-32" style="rounded=0;orthogonalLoop=1;jettySize=auto;html=1;exitX=1;exitY=1;exitDx=0;exitDy=0;entryX=0.5;entryY=0;entryDx=0;entryDy=0;endArrow=none;endFill=0;" edge="1" parent="1" source="R1vY9NnCzB2_1B6ub0-K-28" target="R1vY9NnCzB2_1B6ub0-K-30">
          <mxGeometry relative="1" as="geometry" />
        </mxCell>
        <mxCell id="R1vY9NnCzB2_1B6ub0-K-28" value="$$\exp$$" style="ellipse;whiteSpace=wrap;html=1;aspect=fixed;" vertex="1" parent="1">
          <mxGeometry x="437" y="2104" width="28" height="28" as="geometry" />
        </mxCell>
        <mxCell id="R1vY9NnCzB2_1B6ub0-K-30" value="$$2$$" style="rounded=0;whiteSpace=wrap;html=1;" vertex="1" parent="1">
          <mxGeometry x="467" y="2151" width="30" height="30" as="geometry" />
        </mxCell>
        <mxCell id="R1vY9NnCzB2_1B6ub0-K-34" value="&lt;span style=&quot;font-family: Helvetica; font-size: 12px; font-style: normal; font-variant-ligatures: normal; font-variant-caps: normal; font-weight: 400; letter-spacing: normal; orphans: 2; text-align: left; text-indent: 0px; text-transform: none; widows: 2; word-spacing: 0px; -webkit-text-stroke-width: 0px; background-color: rgb(251, 251, 251); text-decoration-thickness: initial; text-decoration-style: initial; text-decoration-color: initial; float: none; display: inline !important;&quot;&gt;$$-xy^2-x^2y+y^2$$&lt;/span&gt;" style="text;whiteSpace=wrap;html=1;fontColor=#000099;" vertex="1" parent="1">
          <mxGeometry x="371" y="2030" width="120" height="30" as="geometry" />
        </mxCell>
        <mxCell id="R1vY9NnCzB2_1B6ub0-K-40" style="edgeStyle=none;rounded=0;orthogonalLoop=1;jettySize=auto;html=1;exitX=1;exitY=1;exitDx=0;exitDy=0;entryX=0.5;entryY=0;entryDx=0;entryDy=0;endArrow=none;endFill=0;" edge="1" parent="1" source="R1vY9NnCzB2_1B6ub0-K-36" target="R1vY9NnCzB2_1B6ub0-K-39">
          <mxGeometry relative="1" as="geometry" />
        </mxCell>
        <mxCell id="R1vY9NnCzB2_1B6ub0-K-45" style="edgeStyle=none;rounded=0;orthogonalLoop=1;jettySize=auto;html=1;exitX=0;exitY=1;exitDx=0;exitDy=0;entryX=0.5;entryY=0;entryDx=0;entryDy=0;endArrow=none;endFill=0;" edge="1" parent="1" source="R1vY9NnCzB2_1B6ub0-K-36" target="R1vY9NnCzB2_1B6ub0-K-44">
          <mxGeometry relative="1" as="geometry" />
        </mxCell>
        <mxCell id="R1vY9NnCzB2_1B6ub0-K-36" value="$$-$$" style="ellipse;whiteSpace=wrap;html=1;aspect=fixed;fillColor=#dae8fc;strokeColor=#6c8ebf;" vertex="1" parent="1">
          <mxGeometry x="239" y="2104" width="28" height="28" as="geometry" />
        </mxCell>
        <mxCell id="R1vY9NnCzB2_1B6ub0-K-43" style="edgeStyle=none;rounded=0;orthogonalLoop=1;jettySize=auto;html=1;exitX=1;exitY=1;exitDx=0;exitDy=0;entryX=0.5;entryY=0;entryDx=0;entryDy=0;endArrow=none;endFill=0;" edge="1" parent="1" source="R1vY9NnCzB2_1B6ub0-K-39" target="R1vY9NnCzB2_1B6ub0-K-42">
          <mxGeometry relative="1" as="geometry" />
        </mxCell>
        <mxCell id="R1vY9NnCzB2_1B6ub0-K-55" style="edgeStyle=none;rounded=0;orthogonalLoop=1;jettySize=auto;html=1;exitX=0;exitY=1;exitDx=0;exitDy=0;entryX=0.5;entryY=0;entryDx=0;entryDy=0;endArrow=none;endFill=0;" edge="1" parent="1" source="R1vY9NnCzB2_1B6ub0-K-39" target="R1vY9NnCzB2_1B6ub0-K-54">
          <mxGeometry relative="1" as="geometry" />
        </mxCell>
        <mxCell id="R1vY9NnCzB2_1B6ub0-K-39" value="$$\times$$" style="ellipse;whiteSpace=wrap;html=1;aspect=fixed;" vertex="1" parent="1">
          <mxGeometry x="329" y="2152" width="28" height="28" as="geometry" />
        </mxCell>
        <mxCell id="R1vY9NnCzB2_1B6ub0-K-42" value="$$y$$" style="rounded=0;whiteSpace=wrap;html=1;" vertex="1" parent="1">
          <mxGeometry x="357" y="2188" width="30" height="30" as="geometry" />
        </mxCell>
        <mxCell id="R1vY9NnCzB2_1B6ub0-K-50" style="edgeStyle=none;rounded=0;orthogonalLoop=1;jettySize=auto;html=1;exitX=0;exitY=1;exitDx=0;exitDy=0;endArrow=none;endFill=0;entryX=0.5;entryY=0;entryDx=0;entryDy=0;" edge="1" parent="1" source="R1vY9NnCzB2_1B6ub0-K-44" target="R1vY9NnCzB2_1B6ub0-K-101">
          <mxGeometry relative="1" as="geometry">
            <mxPoint x="134" y="2188" as="targetPoint" />
          </mxGeometry>
        </mxCell>
        <mxCell id="R1vY9NnCzB2_1B6ub0-K-51" style="edgeStyle=none;rounded=0;orthogonalLoop=1;jettySize=auto;html=1;exitX=1;exitY=1;exitDx=0;exitDy=0;entryX=0.5;entryY=0;entryDx=0;entryDy=0;endArrow=none;endFill=0;" edge="1" parent="1" source="R1vY9NnCzB2_1B6ub0-K-44" target="R1vY9NnCzB2_1B6ub0-K-47">
          <mxGeometry relative="1" as="geometry" />
        </mxCell>
        <mxCell id="R1vY9NnCzB2_1B6ub0-K-44" value="$$\times$$" style="ellipse;whiteSpace=wrap;html=1;aspect=fixed;fillColor=#dae8fc;strokeColor=#6c8ebf;" vertex="1" parent="1">
          <mxGeometry x="167" y="2152" width="28" height="28" as="geometry" />
        </mxCell>
        <mxCell id="R1vY9NnCzB2_1B6ub0-K-52" style="edgeStyle=none;rounded=0;orthogonalLoop=1;jettySize=auto;html=1;exitX=0;exitY=1;exitDx=0;exitDy=0;entryX=0.5;entryY=0;entryDx=0;entryDy=0;endArrow=none;endFill=0;" edge="1" parent="1" source="R1vY9NnCzB2_1B6ub0-K-47" target="R1vY9NnCzB2_1B6ub0-K-48">
          <mxGeometry relative="1" as="geometry" />
        </mxCell>
        <mxCell id="R1vY9NnCzB2_1B6ub0-K-53" style="edgeStyle=none;rounded=0;orthogonalLoop=1;jettySize=auto;html=1;exitX=1;exitY=1;exitDx=0;exitDy=0;entryX=0.5;entryY=0;entryDx=0;entryDy=0;endArrow=none;endFill=0;" edge="1" parent="1" source="R1vY9NnCzB2_1B6ub0-K-47" target="R1vY9NnCzB2_1B6ub0-K-49">
          <mxGeometry relative="1" as="geometry" />
        </mxCell>
        <mxCell id="R1vY9NnCzB2_1B6ub0-K-47" value="$$\exp$$" style="ellipse;whiteSpace=wrap;html=1;aspect=fixed;" vertex="1" parent="1">
          <mxGeometry x="211" y="2189" width="28" height="28" as="geometry" />
        </mxCell>
        <mxCell id="R1vY9NnCzB2_1B6ub0-K-48" value="$$y$$" style="rounded=0;whiteSpace=wrap;html=1;" vertex="1" parent="1">
          <mxGeometry x="187" y="2229" width="30" height="30" as="geometry" />
        </mxCell>
        <mxCell id="R1vY9NnCzB2_1B6ub0-K-49" value="$$2$$" style="rounded=0;whiteSpace=wrap;html=1;" vertex="1" parent="1">
          <mxGeometry x="237" y="2229" width="30" height="30" as="geometry" />
        </mxCell>
        <mxCell id="R1vY9NnCzB2_1B6ub0-K-58" style="edgeStyle=none;rounded=0;orthogonalLoop=1;jettySize=auto;html=1;exitX=0;exitY=1;exitDx=0;exitDy=0;entryX=0.5;entryY=0;entryDx=0;entryDy=0;endArrow=none;endFill=0;" edge="1" parent="1" source="R1vY9NnCzB2_1B6ub0-K-54" target="R1vY9NnCzB2_1B6ub0-K-56">
          <mxGeometry relative="1" as="geometry" />
        </mxCell>
        <mxCell id="R1vY9NnCzB2_1B6ub0-K-59" style="edgeStyle=none;rounded=0;orthogonalLoop=1;jettySize=auto;html=1;exitX=1;exitY=1;exitDx=0;exitDy=0;entryX=0.75;entryY=0;entryDx=0;entryDy=0;endArrow=none;endFill=0;" edge="1" parent="1" source="R1vY9NnCzB2_1B6ub0-K-54" target="R1vY9NnCzB2_1B6ub0-K-57">
          <mxGeometry relative="1" as="geometry" />
        </mxCell>
        <mxCell id="R1vY9NnCzB2_1B6ub0-K-54" value="$$\exp$$" style="ellipse;whiteSpace=wrap;html=1;aspect=fixed;" vertex="1" parent="1">
          <mxGeometry x="301" y="2189" width="28" height="28" as="geometry" />
        </mxCell>
        <mxCell id="R1vY9NnCzB2_1B6ub0-K-56" value="$$x$$" style="rounded=0;whiteSpace=wrap;html=1;" vertex="1" parent="1">
          <mxGeometry x="277" y="2229" width="30" height="30" as="geometry" />
        </mxCell>
        <mxCell id="R1vY9NnCzB2_1B6ub0-K-57" value="$$2$$" style="rounded=0;whiteSpace=wrap;html=1;" vertex="1" parent="1">
          <mxGeometry x="317" y="2229" width="30" height="30" as="geometry" />
        </mxCell>
        <mxCell id="R1vY9NnCzB2_1B6ub0-K-61" value="&lt;span style=&quot;font-family: Helvetica; font-size: 12px; font-style: normal; font-variant-ligatures: normal; font-variant-caps: normal; font-weight: 400; letter-spacing: normal; orphans: 2; text-align: left; text-indent: 0px; text-transform: none; widows: 2; word-spacing: 0px; -webkit-text-stroke-width: 0px; background-color: rgb(251, 251, 251); text-decoration-thickness: initial; text-decoration-style: initial; text-decoration-color: initial; float: none; display: inline !important;&quot;&gt;$$-xy^2+x^2y$$&lt;/span&gt;" style="text;whiteSpace=wrap;html=1;fontColor=#000099;" vertex="1" parent="1">
          <mxGeometry x="272" y="2090" width="120" height="30" as="geometry" />
        </mxCell>
        <mxCell id="R1vY9NnCzB2_1B6ub0-K-62" value="&lt;span style=&quot;font-family: Helvetica; font-size: 12px; font-style: normal; font-variant-ligatures: normal; font-variant-caps: normal; font-weight: 400; letter-spacing: normal; orphans: 2; text-align: left; text-indent: 0px; text-transform: none; widows: 2; word-spacing: 0px; -webkit-text-stroke-width: 0px; background-color: rgb(251, 251, 251); text-decoration-thickness: initial; text-decoration-style: initial; text-decoration-color: initial; float: none; display: inline !important;&quot;&gt;$$-xy^2$$&lt;/span&gt;" style="text;whiteSpace=wrap;html=1;fontColor=#000099;" vertex="1" parent="1">
          <mxGeometry x="197" y="2140" width="120" height="30" as="geometry" />
        </mxCell>
        <mxCell id="R1vY9NnCzB2_1B6ub0-K-66" value="$$y$$" style="rounded=0;whiteSpace=wrap;html=1;" vertex="1" parent="1">
          <mxGeometry x="254" y="2663" width="30" height="30" as="geometry" />
        </mxCell>
        <mxCell id="R1vY9NnCzB2_1B6ub0-K-67" style="rounded=0;orthogonalLoop=1;jettySize=auto;html=1;exitX=1;exitY=1;exitDx=0;exitDy=0;entryX=0.5;entryY=0;entryDx=0;entryDy=0;" edge="1" parent="1" source="R1vY9NnCzB2_1B6ub0-K-69" target="R1vY9NnCzB2_1B6ub0-K-72">
          <mxGeometry relative="1" as="geometry" />
        </mxCell>
        <mxCell id="R1vY9NnCzB2_1B6ub0-K-68" style="edgeStyle=none;rounded=0;orthogonalLoop=1;jettySize=auto;html=1;exitX=0;exitY=1;exitDx=0;exitDy=0;entryX=0.5;entryY=0;entryDx=0;entryDy=0;" edge="1" parent="1" source="R1vY9NnCzB2_1B6ub0-K-69" target="R1vY9NnCzB2_1B6ub0-K-76">
          <mxGeometry relative="1" as="geometry" />
        </mxCell>
        <mxCell id="R1vY9NnCzB2_1B6ub0-K-69" value="$$+$$" style="ellipse;whiteSpace=wrap;html=1;aspect=fixed;" vertex="1" parent="1">
          <mxGeometry x="186" y="2560" width="28" height="28" as="geometry" />
        </mxCell>
        <mxCell id="R1vY9NnCzB2_1B6ub0-K-70" style="rounded=0;orthogonalLoop=1;jettySize=auto;html=1;exitX=0;exitY=1;exitDx=0;exitDy=0;entryX=0.5;entryY=0;entryDx=0;entryDy=0;endArrow=none;endFill=0;" edge="1" parent="1" source="R1vY9NnCzB2_1B6ub0-K-72" target="R1vY9NnCzB2_1B6ub0-K-66">
          <mxGeometry relative="1" as="geometry" />
        </mxCell>
        <mxCell id="R1vY9NnCzB2_1B6ub0-K-71" style="rounded=0;orthogonalLoop=1;jettySize=auto;html=1;exitX=1;exitY=1;exitDx=0;exitDy=0;entryX=0.5;entryY=0;entryDx=0;entryDy=0;" edge="1" parent="1" source="R1vY9NnCzB2_1B6ub0-K-72" target="R1vY9NnCzB2_1B6ub0-K-73">
          <mxGeometry relative="1" as="geometry" />
        </mxCell>
        <mxCell id="R1vY9NnCzB2_1B6ub0-K-72" value="$$\exp$$" style="ellipse;whiteSpace=wrap;html=1;aspect=fixed;" vertex="1" parent="1">
          <mxGeometry x="284" y="2616" width="28" height="28" as="geometry" />
        </mxCell>
        <mxCell id="R1vY9NnCzB2_1B6ub0-K-73" value="$$2$$" style="rounded=0;whiteSpace=wrap;html=1;" vertex="1" parent="1">
          <mxGeometry x="314" y="2663" width="30" height="30" as="geometry" />
        </mxCell>
        <mxCell id="R1vY9NnCzB2_1B6ub0-K-74" style="edgeStyle=none;rounded=0;orthogonalLoop=1;jettySize=auto;html=1;exitX=1;exitY=1;exitDx=0;exitDy=0;entryX=0.5;entryY=0;entryDx=0;entryDy=0;" edge="1" parent="1" source="R1vY9NnCzB2_1B6ub0-K-76" target="R1vY9NnCzB2_1B6ub0-K-79">
          <mxGeometry relative="1" as="geometry" />
        </mxCell>
        <mxCell id="R1vY9NnCzB2_1B6ub0-K-75" style="edgeStyle=none;rounded=0;orthogonalLoop=1;jettySize=auto;html=1;exitX=0;exitY=1;exitDx=0;exitDy=0;entryX=0.5;entryY=0;entryDx=0;entryDy=0;" edge="1" parent="1" source="R1vY9NnCzB2_1B6ub0-K-76" target="R1vY9NnCzB2_1B6ub0-K-83">
          <mxGeometry relative="1" as="geometry" />
        </mxCell>
        <mxCell id="R1vY9NnCzB2_1B6ub0-K-76" value="$$+$$" style="ellipse;whiteSpace=wrap;html=1;aspect=fixed;fillColor=#dae8fc;strokeColor=#6c8ebf;" vertex="1" parent="1">
          <mxGeometry x="86" y="2616" width="28" height="28" as="geometry" />
        </mxCell>
        <mxCell id="R1vY9NnCzB2_1B6ub0-K-77" style="edgeStyle=none;rounded=0;orthogonalLoop=1;jettySize=auto;html=1;exitX=1;exitY=1;exitDx=0;exitDy=0;entryX=0.5;entryY=0;entryDx=0;entryDy=0;" edge="1" parent="1" source="R1vY9NnCzB2_1B6ub0-K-79" target="R1vY9NnCzB2_1B6ub0-K-80">
          <mxGeometry relative="1" as="geometry" />
        </mxCell>
        <mxCell id="R1vY9NnCzB2_1B6ub0-K-78" style="edgeStyle=none;rounded=0;orthogonalLoop=1;jettySize=auto;html=1;exitX=0;exitY=1;exitDx=0;exitDy=0;entryX=0.5;entryY=0;entryDx=0;entryDy=0;" edge="1" parent="1" source="R1vY9NnCzB2_1B6ub0-K-79" target="R1vY9NnCzB2_1B6ub0-K-92">
          <mxGeometry relative="1" as="geometry" />
        </mxCell>
        <mxCell id="R1vY9NnCzB2_1B6ub0-K-79" value="$$\times$$" style="ellipse;whiteSpace=wrap;html=1;aspect=fixed;" vertex="1" parent="1">
          <mxGeometry x="176" y="2664" width="28" height="28" as="geometry" />
        </mxCell>
        <mxCell id="R1vY9NnCzB2_1B6ub0-K-80" value="$$y$$" style="rounded=0;whiteSpace=wrap;html=1;" vertex="1" parent="1">
          <mxGeometry x="204" y="2700" width="30" height="30" as="geometry" />
        </mxCell>
        <mxCell id="R1vY9NnCzB2_1B6ub0-K-81" style="edgeStyle=none;rounded=0;orthogonalLoop=1;jettySize=auto;html=1;exitX=0;exitY=1;exitDx=0;exitDy=0;entryX=0.5;entryY=0;entryDx=0;entryDy=0;" edge="1" parent="1" source="R1vY9NnCzB2_1B6ub0-K-83" target="R1vY9NnCzB2_1B6ub0-K-84">
          <mxGeometry relative="1" as="geometry" />
        </mxCell>
        <mxCell id="R1vY9NnCzB2_1B6ub0-K-82" style="edgeStyle=none;rounded=0;orthogonalLoop=1;jettySize=auto;html=1;exitX=1;exitY=1;exitDx=0;exitDy=0;entryX=0.5;entryY=0;entryDx=0;entryDy=0;" edge="1" parent="1" source="R1vY9NnCzB2_1B6ub0-K-83" target="R1vY9NnCzB2_1B6ub0-K-87">
          <mxGeometry relative="1" as="geometry" />
        </mxCell>
        <mxCell id="R1vY9NnCzB2_1B6ub0-K-83" value="$$\times$$" style="ellipse;whiteSpace=wrap;html=1;aspect=fixed;" vertex="1" parent="1">
          <mxGeometry x="14" y="2664" width="28" height="28" as="geometry" />
        </mxCell>
        <mxCell id="R1vY9NnCzB2_1B6ub0-K-84" value="$$x$$" style="rounded=0;whiteSpace=wrap;html=1;" vertex="1" parent="1">
          <mxGeometry x="-34" y="2700" width="30" height="30" as="geometry" />
        </mxCell>
        <mxCell id="R1vY9NnCzB2_1B6ub0-K-85" style="edgeStyle=none;rounded=0;orthogonalLoop=1;jettySize=auto;html=1;exitX=0;exitY=1;exitDx=0;exitDy=0;entryX=0.5;entryY=0;entryDx=0;entryDy=0;" edge="1" parent="1" source="R1vY9NnCzB2_1B6ub0-K-87" target="R1vY9NnCzB2_1B6ub0-K-88">
          <mxGeometry relative="1" as="geometry" />
        </mxCell>
        <mxCell id="R1vY9NnCzB2_1B6ub0-K-86" style="edgeStyle=none;rounded=0;orthogonalLoop=1;jettySize=auto;html=1;exitX=1;exitY=1;exitDx=0;exitDy=0;entryX=0.5;entryY=0;entryDx=0;entryDy=0;" edge="1" parent="1" source="R1vY9NnCzB2_1B6ub0-K-87" target="R1vY9NnCzB2_1B6ub0-K-89">
          <mxGeometry relative="1" as="geometry" />
        </mxCell>
        <mxCell id="R1vY9NnCzB2_1B6ub0-K-87" value="$$\exp$$" style="ellipse;whiteSpace=wrap;html=1;aspect=fixed;" vertex="1" parent="1">
          <mxGeometry x="58" y="2701" width="28" height="28" as="geometry" />
        </mxCell>
        <mxCell id="R1vY9NnCzB2_1B6ub0-K-88" value="$$y$$" style="rounded=0;whiteSpace=wrap;html=1;" vertex="1" parent="1">
          <mxGeometry x="34" y="2741" width="30" height="30" as="geometry" />
        </mxCell>
        <mxCell id="R1vY9NnCzB2_1B6ub0-K-89" value="$$2$$" style="rounded=0;whiteSpace=wrap;html=1;" vertex="1" parent="1">
          <mxGeometry x="84" y="2741" width="30" height="30" as="geometry" />
        </mxCell>
        <mxCell id="R1vY9NnCzB2_1B6ub0-K-90" style="edgeStyle=none;rounded=0;orthogonalLoop=1;jettySize=auto;html=1;exitX=0;exitY=1;exitDx=0;exitDy=0;entryX=0.5;entryY=0;entryDx=0;entryDy=0;" edge="1" parent="1" source="R1vY9NnCzB2_1B6ub0-K-92" target="R1vY9NnCzB2_1B6ub0-K-93">
          <mxGeometry relative="1" as="geometry" />
        </mxCell>
        <mxCell id="R1vY9NnCzB2_1B6ub0-K-91" style="edgeStyle=none;rounded=0;orthogonalLoop=1;jettySize=auto;html=1;exitX=1;exitY=1;exitDx=0;exitDy=0;entryX=0.75;entryY=0;entryDx=0;entryDy=0;" edge="1" parent="1" source="R1vY9NnCzB2_1B6ub0-K-92" target="R1vY9NnCzB2_1B6ub0-K-94">
          <mxGeometry relative="1" as="geometry" />
        </mxCell>
        <mxCell id="R1vY9NnCzB2_1B6ub0-K-92" value="$$\exp$$" style="ellipse;whiteSpace=wrap;html=1;aspect=fixed;" vertex="1" parent="1">
          <mxGeometry x="148" y="2701" width="28" height="28" as="geometry" />
        </mxCell>
        <mxCell id="R1vY9NnCzB2_1B6ub0-K-93" value="$$x$$" style="rounded=0;whiteSpace=wrap;html=1;" vertex="1" parent="1">
          <mxGeometry x="124" y="2741" width="30" height="30" as="geometry" />
        </mxCell>
        <mxCell id="R1vY9NnCzB2_1B6ub0-K-94" value="$$2$$" style="rounded=0;whiteSpace=wrap;html=1;" vertex="1" parent="1">
          <mxGeometry x="164" y="2741" width="30" height="30" as="geometry" />
        </mxCell>
        <mxCell id="R1vY9NnCzB2_1B6ub0-K-95" value="&lt;span style=&quot;color: rgb(0, 0, 0); font-family: Helvetica; font-size: 12px; font-style: normal; font-variant-ligatures: normal; font-variant-caps: normal; font-weight: 400; letter-spacing: normal; orphans: 2; text-align: left; text-indent: 0px; text-transform: none; widows: 2; word-spacing: 0px; -webkit-text-stroke-width: 0px; background-color: rgb(251, 251, 251); text-decoration-thickness: initial; text-decoration-style: initial; text-decoration-color: initial; float: none; display: inline !important;&quot;&gt;$$xy^2+x^2y$$&lt;/span&gt;" style="text;whiteSpace=wrap;html=1;" vertex="1" parent="1">
          <mxGeometry x="119" y="2602" width="120" height="30" as="geometry" />
        </mxCell>
        <mxCell id="R1vY9NnCzB2_1B6ub0-K-96" value="&lt;span style=&quot;color: rgb(0, 0, 0); font-family: Helvetica; font-size: 12px; font-style: normal; font-variant-ligatures: normal; font-variant-caps: normal; font-weight: 400; letter-spacing: normal; orphans: 2; text-align: left; text-indent: 0px; text-transform: none; widows: 2; word-spacing: 0px; -webkit-text-stroke-width: 0px; background-color: rgb(251, 251, 251); text-decoration-thickness: initial; text-decoration-style: initial; text-decoration-color: initial; float: none; display: inline !important;&quot;&gt;$$xy^2$$&lt;/span&gt;" style="text;whiteSpace=wrap;html=1;" vertex="1" parent="1">
          <mxGeometry x="44" y="2652" width="120" height="30" as="geometry" />
        </mxCell>
        <mxCell id="R1vY9NnCzB2_1B6ub0-K-97" value="&lt;span style=&quot;color: rgb(0, 0, 0); font-family: Helvetica; font-size: 12px; font-style: normal; font-variant-ligatures: normal; font-variant-caps: normal; font-weight: 400; letter-spacing: normal; orphans: 2; text-align: left; text-indent: 0px; text-transform: none; widows: 2; word-spacing: 0px; -webkit-text-stroke-width: 0px; background-color: rgb(251, 251, 251); text-decoration-thickness: initial; text-decoration-style: initial; text-decoration-color: initial; float: none; display: inline !important;&quot;&gt;$$x^2y$$&lt;/span&gt;" style="text;whiteSpace=wrap;html=1;" vertex="1" parent="1">
          <mxGeometry x="140" y="2652" width="120" height="30" as="geometry" />
        </mxCell>
        <mxCell id="R1vY9NnCzB2_1B6ub0-K-98" value="&lt;span style=&quot;color: rgb(0, 0, 0); font-family: Helvetica; font-size: 12px; font-style: normal; font-variant-ligatures: normal; font-variant-caps: normal; font-weight: 400; letter-spacing: normal; orphans: 2; text-align: left; text-indent: 0px; text-transform: none; widows: 2; word-spacing: 0px; -webkit-text-stroke-width: 0px; background-color: rgb(251, 251, 251); text-decoration-thickness: initial; text-decoration-style: initial; text-decoration-color: initial; float: none; display: inline !important;&quot;&gt;$$y^2$$&lt;/span&gt;" style="text;whiteSpace=wrap;html=1;" vertex="1" parent="1">
          <mxGeometry x="39" y="2689" width="80" height="40" as="geometry" />
        </mxCell>
        <mxCell id="R1vY9NnCzB2_1B6ub0-K-99" value="&lt;span style=&quot;color: rgb(0, 0, 0); font-family: Helvetica; font-size: 12px; font-style: normal; font-variant-ligatures: normal; font-variant-caps: normal; font-weight: 400; letter-spacing: normal; orphans: 2; text-align: left; text-indent: 0px; text-transform: none; widows: 2; word-spacing: 0px; -webkit-text-stroke-width: 0px; background-color: rgb(251, 251, 251); text-decoration-thickness: initial; text-decoration-style: initial; text-decoration-color: initial; float: none; display: inline !important;&quot;&gt;$$x^2$$&lt;/span&gt;" style="text;whiteSpace=wrap;html=1;" vertex="1" parent="1">
          <mxGeometry x="122" y="2689" width="80" height="40" as="geometry" />
        </mxCell>
        <mxCell id="R1vY9NnCzB2_1B6ub0-K-104" style="edgeStyle=none;rounded=0;orthogonalLoop=1;jettySize=auto;html=1;exitX=0;exitY=1;exitDx=0;exitDy=0;entryX=0.5;entryY=0;entryDx=0;entryDy=0;" edge="1" parent="1" source="R1vY9NnCzB2_1B6ub0-K-101" target="R1vY9NnCzB2_1B6ub0-K-102">
          <mxGeometry relative="1" as="geometry" />
        </mxCell>
        <mxCell id="R1vY9NnCzB2_1B6ub0-K-105" style="edgeStyle=none;rounded=0;orthogonalLoop=1;jettySize=auto;html=1;exitX=1;exitY=1;exitDx=0;exitDy=0;entryX=0.5;entryY=0;entryDx=0;entryDy=0;" edge="1" parent="1" source="R1vY9NnCzB2_1B6ub0-K-101" target="R1vY9NnCzB2_1B6ub0-K-103">
          <mxGeometry relative="1" as="geometry" />
        </mxCell>
        <mxCell id="R1vY9NnCzB2_1B6ub0-K-101" value="$$\times$$" style="ellipse;whiteSpace=wrap;html=1;aspect=fixed;" vertex="1" parent="1">
          <mxGeometry x="119" y="2188" width="28" height="28" as="geometry" />
        </mxCell>
        <mxCell id="R1vY9NnCzB2_1B6ub0-K-102" value="$$x$$" style="rounded=0;whiteSpace=wrap;html=1;" vertex="1" parent="1">
          <mxGeometry x="93" y="2229" width="30" height="30" as="geometry" />
        </mxCell>
        <mxCell id="R1vY9NnCzB2_1B6ub0-K-103" value="$$-1$$" style="rounded=0;whiteSpace=wrap;html=1;" vertex="1" parent="1">
          <mxGeometry x="143" y="2229" width="30" height="30" as="geometry" />
        </mxCell>
        <mxCell id="R1vY9NnCzB2_1B6ub0-K-106" value="&lt;span style=&quot;font-family: Helvetica; font-size: 12px; font-style: normal; font-variant-ligatures: normal; font-variant-caps: normal; font-weight: 400; letter-spacing: normal; orphans: 2; text-align: left; text-indent: 0px; text-transform: none; widows: 2; word-spacing: 0px; -webkit-text-stroke-width: 0px; background-color: rgb(251, 251, 251); text-decoration-thickness: initial; text-decoration-style: initial; text-decoration-color: initial; float: none; display: inline !important;&quot;&gt;&lt;font color=&quot;#000000&quot;&gt;$$-xy^2$$&lt;/font&gt;&lt;/span&gt;" style="text;whiteSpace=wrap;html=1;fontColor=#000099;" vertex="1" parent="1">
          <mxGeometry x="450" y="2240" width="120" height="30" as="geometry" />
        </mxCell>
      </root>
    </mxGraphModel>
  </diagram>
</mxfile>
